<svg width="10rem" height="auto" xmlns="http://www.w3.org/2000/svg" viewBox="0 0 379.87 88.45">
    <defs>
        <style>.cls-1{fill:#fab22f;}.cls-2{fill:#f4b53d;}.cls-3{fill:#f4b743;}.cls-4{fill:#f1ba4c;}</style>
    </defs>
    <g id="Layer_2" data-name="Layer 2">
        <g id="Layer_1-2" data-name="Layer 1">
            <path
                d="M64,38.43a7.18,7.18,0,0,0-1.12-3.33,10.63,10.63,0,0,0-2.77-2.93A15,15,0,0,0,56,30.05a16,16,0,0,0-5.19-.82,21.62,21.62,0,0,0-5.27.6,14.09,14.09,0,0,0-4.15,1.69,9.21,9.21,0,0,0-2.79,2.65,7.09,7.09,0,0,0-1.21,3.41,7.41,7.41,0,0,0,.53,3.58,8.41,8.41,0,0,0,2.31,3.13,14.31,14.31,0,0,0,4,2.4,21.77,21.77,0,0,0,5.64,1.38l3.27.45q8.12,1.13,12.09,4.68a11.22,11.22,0,0,1,4,8.69,10.47,10.47,0,0,1-1.44,5.35,14,14,0,0,1-3.92,4.29,20.2,20.2,0,0,1-5.75,2.85,23,23,0,0,1-7,1A26.76,26.76,0,0,1,44,74.49a19.31,19.31,0,0,1-5.95-2.71,13.12,13.12,0,0,1-4-4.37,10.68,10.68,0,0,1-1.3-5.92h3.39A8.45,8.45,0,0,0,37.3,66.4a11,11,0,0,0,3.41,3.44,15.63,15.63,0,0,0,4.85,2,24.15,24.15,0,0,0,5.56.65A20.3,20.3,0,0,0,57,71.67a16.55,16.55,0,0,0,4.65-2.2,10.49,10.49,0,0,0,3.07-3.21,7.26,7.26,0,0,0,1.1-3.81,12.39,12.39,0,0,0-.53-3.67,7.57,7.57,0,0,0-2-3.15,12.78,12.78,0,0,0-3.9-2.48,26.53,26.53,0,0,0-6.34-1.7L49.93,51q-8.51-1.23-12.4-4.71A10.15,10.15,0,0,1,34,37.64,9.72,9.72,0,0,1,35.47,33,12.22,12.22,0,0,1,39,29.43a17.93,17.93,0,0,1,5.22-2.31,24.91,24.91,0,0,1,6.54-.82,21.55,21.55,0,0,1,6.57,1,17.29,17.29,0,0,1,5.19,2.6A12.88,12.88,0,0,1,66,33.69a10.38,10.38,0,0,1,1.38,4.74Z" />
            <path class="cls-1"
                d="M31.15,37.45a12.48,12.48,0,0,1,1.93-6,15.12,15.12,0,0,1,4.36-4.41,20.61,20.61,0,0,1,6.05-2.69,27.67,27.67,0,0,1,7.29-.92,27.24,27.24,0,0,1,3.17.2A22.47,22.47,0,0,0,45.14,17c-5.53-2.48-11.23-2.36-16.95-1-5.89,1.37-10,4.86-11.69,10.81a27.38,27.38,0,0,0,1.64,18.88,16,16,0,0,0,12.37,9.58,32.33,32.33,0,0,0,15.63-.78c.84-.26,1.6-.54,2.34-.83-5.75-1-10-2.66-12.84-5.22A12.89,12.89,0,0,1,31.15,37.45Z" />
            <path class="cls-2"
                d="M7.54,37.13A39.81,39.81,0,0,0,.8,40C-.88,41,.58,42.51.72,43.68c.12,1,1.26.36,1.92.1,1.8-.73,3.59-1.51,5.38-2.27a2,2,0,0,0,1.36-2.32C9.07,38.35,9.45,36.51,7.54,37.13Z" />
            <path class="cls-3"
                d="M13,19.61c-1.8-.94-3.61-1.87-5.47-2.7-1.11-.5-1.51,0-1.43,1.2.17,2.37,4.65,6.15,7,5.8.95-.15.84-.9.95-1.7C13.59,21.45,14.11,20.2,13,19.61Z" />
            <path class="cls-3"
                d="M55.43,15.77c.9-.75,1.69-1.64,2.53-2.47a2.47,2.47,0,0,0,.9-2.34c-.3-.72.24-2-.87-2.34-.94-.32-1.45.65-2.06,1.2-1,1-2.13,1.92-3.13,2.94-1.46,1.48-.59,3.39.18,4.38S54.66,16.4,55.43,15.77Z" />
            <path class="cls-4"
                d="M39.09,11.72c.51-.05.64-.51.73-.93.54-2.56,1.07-5.12,1.54-7.39-.14-1-.2-1.68-.35-2.33S40.68,0,40.08,0s-.92.48-1,1c-.48,3.23-1.92,6.37-.81,9.73C38.43,11.18,38.37,11.78,39.09,11.72Z" />
            <path class="cls-3"
                d="M18.67,53.42c-2.87.38-4.83,4.39-3.4,6.77.21.34.4.48.79.4,1-.18,4.25-4,4.23-5.07C20.08,54.67,20.44,53.18,18.67,53.42Z" />
            <path class="cls-4"
                d="M23.32,13.22c.29.44.57.91,1.18.71s.7-.86.72-1.58c-.28-2.38-1.48-4.54-2.59-6.73a.78.78,0,0,0-1.07-.38A.94.94,0,0,0,21,6.31,17.36,17.36,0,0,0,23.32,13.22Z" />
            <path
                d="M64,38.43a7.18,7.18,0,0,0-1.12-3.33,10.63,10.63,0,0,0-2.77-2.93A15,15,0,0,0,56,30.05a16,16,0,0,0-5.19-.82,21.62,21.62,0,0,0-5.27.6,14.09,14.09,0,0,0-4.15,1.69,9.21,9.21,0,0,0-2.79,2.65,7.09,7.09,0,0,0-1.21,3.41,7.41,7.41,0,0,0,.53,3.58,8.41,8.41,0,0,0,2.31,3.13,14.31,14.31,0,0,0,4,2.4,21.77,21.77,0,0,0,5.64,1.38l3.27.45q8.12,1.13,12.09,4.68a11.22,11.22,0,0,1,4,8.69,10.47,10.47,0,0,1-1.44,5.35,14,14,0,0,1-3.92,4.29,20.2,20.2,0,0,1-5.75,2.85,23,23,0,0,1-7,1A26.76,26.76,0,0,1,44,74.49a19.31,19.31,0,0,1-5.95-2.71,13.12,13.12,0,0,1-4-4.37,10.68,10.68,0,0,1-1.3-5.92h3.39A8.45,8.45,0,0,0,37.3,66.4a11,11,0,0,0,3.41,3.44,15.63,15.63,0,0,0,4.85,2,24.15,24.15,0,0,0,5.56.65A20.3,20.3,0,0,0,57,71.67a16.55,16.55,0,0,0,4.65-2.2,10.49,10.49,0,0,0,3.07-3.21,7.26,7.26,0,0,0,1.1-3.81,12.39,12.39,0,0,0-.53-3.67,7.57,7.57,0,0,0-2-3.15,12.78,12.78,0,0,0-3.9-2.48,26.53,26.53,0,0,0-6.34-1.7L49.93,51q-8.51-1.23-12.4-4.71A10.15,10.15,0,0,1,34,37.64,9.72,9.72,0,0,1,35.47,33,12.22,12.22,0,0,1,39,29.43a17.93,17.93,0,0,1,5.22-2.31,24.91,24.91,0,0,1,6.54-.82,21.55,21.55,0,0,1,6.57,1,17.29,17.29,0,0,1,5.19,2.6A12.88,12.88,0,0,1,66,33.69a10.38,10.38,0,0,1,1.38,4.74Z" />
            <path
                d="M84.27,75.25a13.6,13.6,0,0,1-4.17-.62,8.5,8.5,0,0,1-3.33-2,9.3,9.3,0,0,1-2.2-3.44,14.39,14.39,0,0,1-.78-5V39.05h3.27V64.76a7.52,7.52,0,0,0,2,5.72,7.17,7.17,0,0,0,5.18,2,23.49,23.49,0,0,0,7.84-1.3,46.59,46.59,0,0,0,6.94-3v-29h3.27V74.69H99.05V71.25c-1.09.48-2.22,1-3.38,1.43S93.29,73.58,92,74a35.79,35.79,0,0,1-3.84.93A20.58,20.58,0,0,1,84.27,75.25Z" />
            <path
                d="M126,39a13.62,13.62,0,0,1,4.18.62,8.61,8.61,0,0,1,3.32,2A8.83,8.83,0,0,1,135.7,45a14.11,14.11,0,0,1,.79,5v24.7h-3.27V49.42a7.47,7.47,0,0,0-2-5.69A7.24,7.24,0,0,0,126,41.81a23.58,23.58,0,0,0-7.84,1.3,46.47,46.47,0,0,0-6.93,3V74.69H108V39.1h3.27V43c1-.48,2.17-1,3.35-1.43s2.41-.9,3.67-1.27a36.2,36.2,0,0,1,3.83-.93A20.73,20.73,0,0,1,126,39Z" />
            <path
                d="M143.48,65.27a6.7,6.7,0,0,0,2.17,5.36,9.41,9.41,0,0,0,11.23,0,6.7,6.7,0,0,0,2.17-5.36V27h3.27V65.27a10,10,0,0,1-.79,4,9.75,9.75,0,0,1-2.23,3.22,10.38,10.38,0,0,1-3.47,2.17,12.39,12.39,0,0,1-4.56.79,12.65,12.65,0,0,1-4.6-.79,10.42,10.42,0,0,1-3.5-2.17,9.38,9.38,0,0,1-2.2-3.22,10.36,10.36,0,0,1-.76-4Z" />
            <path
                d="M178.78,75.25a13.6,13.6,0,0,1-4.17-.62,8.5,8.5,0,0,1-3.33-2,9.3,9.3,0,0,1-2.2-3.44,14.37,14.37,0,0,1-.79-5V39.05h3.28V64.76a7.52,7.52,0,0,0,2,5.72,7.17,7.17,0,0,0,5.18,2,23.49,23.49,0,0,0,7.84-1.3,47.05,47.05,0,0,0,6.94-3v-29h3.27V74.69h-3.27V71.25c-1.09.48-2.22,1-3.39,1.43s-2.37.9-3.63,1.27a35.79,35.79,0,0,1-3.84.93A20.58,20.58,0,0,1,178.78,75.25Z" />
            <path d="M234.39,74.74V52.07H206.3V74.74H203V27h3.27V49.14h28.09V27h3.27V74.74Z" />
            <path d="M256.32,73.61,241.88,39.05h3.5l12.75,30.73L272.9,39.05h3.5l-23.8,49.4h-3.38Z" />
            <path
                d="M293.65,72.49a16.74,16.74,0,0,0,5.05-.71,12.39,12.39,0,0,0,3.78-1.89,8.43,8.43,0,0,0,2.36-2.7,6.68,6.68,0,0,0,.82-3.22v-.62h3.27v1.19a8.38,8.38,0,0,1-1,4,11.25,11.25,0,0,1-3,3.5,15.52,15.52,0,0,1-4.82,2.48,20.56,20.56,0,0,1-6.4.93,18.46,18.46,0,0,1-6.74-1.16,14.57,14.57,0,0,1-5-3.15,13.25,13.25,0,0,1-3.07-4.71,15.94,15.94,0,0,1-1.05-5.81V53.15a15.9,15.9,0,0,1,1.05-5.81,13.08,13.08,0,0,1,3.07-4.71,14.44,14.44,0,0,1,5-3.16,20.16,20.16,0,0,1,13.48,0,14.44,14.44,0,0,1,5,3.16,13.08,13.08,0,0,1,3.07,4.71,15.9,15.9,0,0,1,1.05,5.81V58H281.08v2a15.06,15.06,0,0,0,.81,5A10.61,10.61,0,0,0,284.32,69a11.27,11.27,0,0,0,3.94,2.57A14.53,14.53,0,0,0,293.65,72.49Zm12.58-18.78a15.06,15.06,0,0,0-.82-5A10.69,10.69,0,0,0,303,44.74,11.25,11.25,0,0,0,299,42.18a16.08,16.08,0,0,0-10.78,0,11.25,11.25,0,0,0-3.94,2.56,10.69,10.69,0,0,0-2.43,3.95,15.06,15.06,0,0,0-.81,5v1.52h25.15Z" />
            <path
                d="M330.14,38.31A19,19,0,0,1,337,39.47a14.61,14.61,0,0,1,5.05,3.16,13.23,13.23,0,0,1,3.13,4.71,15.51,15.51,0,0,1,1.07,5.81v7.44a15.54,15.54,0,0,1-1.07,5.81,13.41,13.41,0,0,1-3.13,4.71A14.74,14.74,0,0,1,337,74.26a21,21,0,0,1-13.75,0,14.74,14.74,0,0,1-5.05-3.15,13.41,13.41,0,0,1-3.13-4.71A15.54,15.54,0,0,1,314,60.59V53.15a15.51,15.51,0,0,1,1.07-5.81,13.23,13.23,0,0,1,3.13-4.71,14.61,14.61,0,0,1,5.05-3.16A19,19,0,0,1,330.14,38.31ZM317.28,60a14.57,14.57,0,0,0,.84,5A10.93,10.93,0,0,0,320.58,69a11.17,11.17,0,0,0,4,2.57,17,17,0,0,0,11.08,0,11.12,11.12,0,0,0,4-2.57A10.93,10.93,0,0,0,342.15,65a14.57,14.57,0,0,0,.84-5V53.71a14.57,14.57,0,0,0-.84-5,10.61,10.61,0,0,0-6.49-6.51,17,17,0,0,0-11.08,0,11.15,11.15,0,0,0-4,2.56,11,11,0,0,0-2.46,3.95,14.57,14.57,0,0,0-.84,5Z" />
            <path
                d="M369.38,39a13.62,13.62,0,0,1,4.18.62,8.61,8.61,0,0,1,3.32,2,8.83,8.83,0,0,1,2.2,3.41,14.11,14.11,0,0,1,.79,5v24.7H376.6V49.42a7.47,7.47,0,0,0-2-5.69,7.24,7.24,0,0,0-5.19-1.92,23.48,23.48,0,0,0-7.83,1.3,46.14,46.14,0,0,0-6.94,3V74.69h-3.27V39.1h3.27V43c1.05-.48,2.17-1,3.35-1.43s2.41-.9,3.67-1.27a36.2,36.2,0,0,1,3.83-.93A20.73,20.73,0,0,1,369.38,39Z" />
        </g>
    </g>
</svg>