<svg width="10rem" height="auto" xmlns="http://www.w3.org/2000/svg" viewBox="0 0 122.92 16.7">
    <defs>
        <style>.cls-1{fill:#fff;}</style>
    </defs>
    <g id="Layer_2" data-name="Layer 2">
        <g id="Layer_1-2" data-name="Layer 1">
            <path class="cls-1"
                d="M5.37,16.7c-3.5,0-5.37-2-5.37-4.49v-.48H1.33v.5c0,1.89,1.48,3.31,4,3.31s4-1.42,4-3.31C9.4,10.5,8.42,9.4,6,8.9L4,8.46C1.41,8,0,6.59,0,4.28S1.75,0,5.05,0s5.08,1.93,5.08,4.28v.36H8.8V4.28c0-1.85-1.35-3.09-3.75-3.09S1.33,2.43,1.33,4.28c0,1.69,1,2.63,3,3l2.08.44c3,.6,4.32,2.1,4.32,4.47S8.86,16.7,5.37,16.7Z" />
            <path class="cls-1"
                d="M20.55,11.38V.27H21.9V11.48c0,3.29-1.68,5.22-4.78,5.22s-4.79-1.95-4.79-5.26h1.34c0,2.6,1.16,4.08,3.45,4.08S20.55,14.06,20.55,11.38Z" />
            <path class="cls-1"
                d="M34.69,8.76H26.58v7.67H25.25V.27h1.33v7.3h8.11V.27H36V16.43H34.69Z" />
            <path class="cls-1"
                d="M46.78,10.13v6.3H45.45V.27h5.92c3.31,0,5,1.91,5,4.93s-1.73,4.93-5,4.93Zm4.47-1.19c2.54,0,3.83-1.41,3.83-3.74s-1.29-3.72-3.83-3.72H46.78V8.94Z" />
            <path class="cls-1"
                d="M63,16.7c-3.3,0-4.88-2.27-4.88-6s1.58-6,4.88-6,4.87,2.26,4.87,6.05S66.35,16.7,63,16.7Zm0-1.1c2.52,0,3.6-1.79,3.6-4.93S65.56,5.72,63,5.72s-3.62,1.79-3.62,5S60.51,15.6,63,15.6Z" />
            <path class="cls-1"
                d="M71.7,10.61v5.82H70.43V4.89H71.7V7.11a3.28,3.28,0,0,1,3.45-2.49A3.4,3.4,0,0,1,76,4.7l0,1.08c-.19,0-.52,0-.85,0C73.05,5.74,71.7,7.34,71.7,10.61Z" />
            <path class="cls-1"
                d="M80,13.23c0,1.83.79,2.26,2.39,2.26h1.15v1.09c-.44,0-.92,0-1.31,0-2.41,0-3.5-.75-3.5-3.16V6H76.94V4.89h1.74V1.6H80V4.89h3.54V6H80Z" />
            <path class="cls-1"
                d="M90.23,1.23c-1.77,0-2.25.5-2.25,2.2V4.89h3.31V6H88V16.43H86.69V6H85V4.89h1.72V3.33C86.69.92,87.61.1,90.12.1a9.18,9.18,0,0,1,1.17.07V1.23Z" />
            <path class="cls-1"
                d="M97.34,16.7c-3.31,0-4.89-2.27-4.89-6s1.58-6,4.89-6,4.87,2.26,4.87,6.05S100.65,16.7,97.34,16.7Zm0-1.1c2.52,0,3.6-1.79,3.6-4.93s-1.08-4.95-3.6-4.95-3.62,1.79-3.62,5S94.8,15.6,97.34,15.6Z" />
            <path class="cls-1" d="M104.83,16.43V.27h1.29V16.43Z" />
            <path class="cls-1" d="M109.28,2.39V.27h1.29V2.39Zm0,14V4.89h1.29V16.43Z" />
            <path class="cls-1"
                d="M118.06,16.7c-3.31,0-4.89-2.27-4.89-6s1.58-6,4.89-6,4.86,2.26,4.86,6.05S121.36,16.7,118.06,16.7Zm0-1.1c2.51,0,3.59-1.79,3.59-4.93s-1.08-4.95-3.59-4.95-3.62,1.79-3.62,5S115.52,15.6,118.06,15.6Z" />
        </g>
    </g>
</svg>