<?xml version="1.0" encoding="utf-8"?>
<!-- Generator: Adobe Illustrator 25.0.1, SVG Export Plug-In . SVG Version: 6.00 Build 0)  -->
<svg version="1.1" id="Layer_1" xmlns="http://www.w3.org/2000/svg" xmlns:xlink="http://www.w3.org/1999/xlink" x="0px" y="0px"
	 viewBox="0 0 189.8 74.7" style="enable-background:new 0 0 189.8 74.7;" xml:space="preserve">
<style type="text/css">
	.st0{fill:#F5B53B;}
	.st1{fill:#F7B436;}
	.st2{fill:#F4B743;}
	.st3{fill:#F4B53D;}
	.st4{fill:#F1BA4C;}
	.st5{fill:#FDF8EA;}
	.st6{fill:#FAB22F;}
	.st7{fill:#EFC164;}
	.st8{fill:#FFFFFF;}
</style>
<path class="st0" d="M-227.2,7.9c0,1.5,0.3,2.8-0.1,3.8c-3,7.6,1.7,10.7,7.5,13.3c2.1,0.9,4.1,2.3,6.1,3.4c2.4,1.4,3.4,3.3,1.9,5.8
	c-1.4,2.2-3.5,2.3-5.7,1.1c-3.5-1.9-7-3.8-10.5-5.8c-2.3-1.4-3.8-1.3-5.3,1.2c-2.7,4.5-6.6,8-11.1,10.6c-2.2,1.3-2.6,2.6-1.6,4.8
	c1.7,4.1,3.3,8.4,4.9,12.6c1,2.7,0.9,5.1-2.1,6.1c-2.9,1-4.3-1-5.2-3.3c-1.6-4-3.2-8-4.7-12.1c-0.9-2.4-2-3.4-4.8-2.6
	c-3.7,1-7.5,1.5-11.3,1.9c-3.1,0.3-4.8,1.7-5.2,4.9c-0.4,3.1-1.1,6.2-1.7,9.3c-0.5,2.4-1.4,4.8-4.4,4.4c-2.9-0.3-3.7-2.6-3.4-5.2
	c0.4-3.1,0.8-6.3,1.5-9.4c0.6-2.5-0.2-3.3-2.6-3.4c-6.9-0.5-13.5-2-19.6-5.2c-2.4-1.2-4.2-0.7-5.8,1.1c-2.1,2.4-4,4.9-6,7.3
	c-1.6,2-3.6,3.3-6,1.5c-2.4-1.8-1.8-4.2-0.3-6.2c1.9-2.7,4-5.3,6.2-7.8c1.5-1.6,2-2.7,0.3-4.6c-5.4-5.9-8.7-13-10.5-20.7
	c-0.7-2.9-1.8-3.4-4.5-2.3c-4.1,1.8-8.4,3.2-12.6,4.9c-2.5,1-5,1.5-6.4-1.6c-1.3-3.1,0.6-4.7,3.1-5.7c4.5-1.8,9-3.6,13.5-5.1
	c3.3-1.1,5.3-2.7,5.3-6.7c0-4,0.6-8,2.1-11.7c1.4-3.5-0.1-5.1-3.1-6.6c-3.4-1.6-6.7-3.7-9.9-5.7c-2-1.3-3.2-3.2-1.7-5.5
	c1.5-2.4,3.7-2.5,6.1-1.1c3.6,2.1,7.3,4,10.9,6.1c2,1.2,3.6,1.3,5.2-0.7c2.9-3.7,6.7-6.5,10.9-8.6c2.3-1.1,2.7-2.6,1.6-4.8
	c-2-4.2-3.9-8.4-5.9-12.7c-1.3-2.8-2.7-6.1,1.1-7.7c3.5-1.5,4.9,1.5,6.1,4.2c2.1,4.7,4.5,9.3,6.5,14c0.8,1.8,1.7,2.6,3.7,2.3
	c3.8-0.6,7.6-1.1,11.4-1.5c2.5-0.2,3.4-1.8,3.7-3.9c0.6-4.6,1.3-9.2,1.7-13.9c0.3-2.8,1.2-5,4.4-4.9c3.1,0.1,3.5,2.5,3.5,5
	c0,4.7-0.6,9.3-1.7,13.9c-0.7,3.1-0.1,4.7,3.3,5.2c4.5,0.7,8.8,2.1,12.7,4.3c2.7,1.5,4.6,0.8,6.6-1.3c3.7-3.8,7.6-7.5,11.5-11.1
	c2.1-1.9,4.8-3.1,6.9-0.1c1.8,2.5,0.4,4.5-1.8,6.3c-3.7,3.1-6.9,6.7-10.5,10c-1.8,1.6-1.7,2.9,0.1,4.4c3.8,3.3,7.2,7,9.5,11.5
	c1.1,2.2,2.5,2,4.5,1.2c6.5-2.6,13.1-4.9,19.6-7.4c2.6-1,5.1-1.3,6.2,1.8c1,3-0.7,4.5-3.5,5.5c-6.1,2.3-12,4.9-18.1,7.1
	c-3,1.1-4.4,2.2-3.4,5.7C-227.4,1.1-226.9,4.7-227.2,7.9z M-281.2-33.4c-2,0-4-0.2-6,0c-10.2,1.5-20.1,4-26.6,12.9
	c-10.1,13.7-8.2,38.1,3.5,50.7c5.6,6.1,12.6,9.1,20.5,10.5c12.8,2.4,25.2,0.5,37.2-4c20.6-7.8,21.5-34.2,11.4-49.9
	C-250.5-27.5-264.5-33.5-281.2-33.4z"/>
<path class="st1" d="M-300.4-127.2c-0.9-0.4-1.8-0.8-2.7-1.2c-0.8-1.1-1.8-1.8-3.2-2c0,0,0,0,0,0c-0.4-0.3-0.7-0.6-1.1-0.9
	c-2-2-4.1-4-6.1-6c-0.7-1.3-1.3-2.6-2-3.8c0.1-0.9-0.1-1.8-1.1-2.1l0,0c0.2-0.9,0-1.7-1-2.1c-0.8-0.7-0.9-1.7-1-2.7
	c0.1-1.2,0.4-2.5-1-3.3c0,0,0,0.1,0,0.1c0.1-5,0.2-10,0.3-15c0.3-0.4,0.9-1.1,0.9-1.1c2.9,2.1,8.7,1.6,7,7.9c-0.4,1.3-0.5,3,1,4.1
	c1.3,3,1.4,6.5,3.9,9c0.2,1.3,0.8,2.3,2.1,2.9c0.4,1.2,1.4,1.9,2.6,2.2c0.4,1.1,1.1,1.8,2.4,1.9c0.6,0.4,1.2,0.7,1.8,1.1
	c4.6,3.2,9.6,4.6,15.2,2.9c0.7-0.1,1.3-0.2,2-0.3c0.8,0.2,1.5,0.1,2-0.7c1.4,0,2.3-0.7,3.1-1.8c3.6-2,5.6-5.1,5.6-9.3
	c0-0.6-0.1-1.3-0.1-1.9c0.2-1.4-0.3-2.4-1.4-3.2c0,0,0.1-0.1,0-0.1c-1.6-5.4-6-7.9-10.7-9.4c-3.4-1.1-7.2-1-10.5,1.3
	c-2.6,1.9-2.1,3.9-0.1,5.8c1.6,1.6,3.3,4.1,5.5,1c1.7-2.5,3.7-3.2,6.4-2.5c3,0.8,3.1,3.5,3.4,6c-1.3,3.7-4.3,5.8-7.2,8.1
	c-2.3,0.1-4.7,0.1-7,0.2c-0.7-0.1-1.3-0.3-2-0.4c-2.6-2-5.3-4.1-7.9-6.1c-0.7-1.3-1.4-2.5-2.1-3.8c-0.3-0.5-0.6-1-0.8-1.5
	c-0.9-4.8,0.1-9.2,3-13.2c1.4-0.5,2.5-1.3,3.2-2.7c1.9-0.9,3.8-1.8,5.7-2.6c0.6-0.1,1.3-0.3,1.9-0.4c0.7-0.1,1.4-0.2,2-0.3
	c1.7,0.6,3.4,0.6,5.1,0c0.7,0.1,1.4,0.2,2.1,0.3c3,1.1,5.9,2.2,8.9,3.3c1.9,1.4,3.8,2.8,5.7,4.2c0.7,1.6,1.8,2.9,3.3,3.9
	c1.1,2,2.2,4,3.2,6c-0.2,0.8,0,1.5,0.7,2c0.1,1,0.3,2,0.4,2.9c0,2-0.1,4-0.1,6c-0.1,0.7-0.2,1.3-0.3,2c-1.3,1.4-1.7,3.2-2,5
	c0,0,0,0,0,0c-1.2,0.7-1.8,1.7-2,3c0,0,0,0,0,0c-0.3,0.4-0.6,0.7-0.9,1.1c-2.3,2-4.7,4-7,6c-0.9,0-1.5,0.3-2,1.1
	c-1.7,0.5-3.3,1-5,1.5c-3.3,0.2-6.7,0.3-10,0.5c-0.7-0.1-1.3-0.1-2-0.2c-1.5-1.1-3.3-0.8-5-0.9c-1-0.4-2-0.7-3-1.1
	C-298.9-127.1-299.6-127.3-300.4-127.2z"/>
<path class="st1" d="M-266.5-186.2c0.4,0.3,0.8,0.5,1.1,0.8c0.6,1.2,1.6,1.9,2.9,2.1c1.6,1.7,3.2,3.3,4.9,5c0.3,1.3,1,2.3,2.2,3
	c0.5,1,0.9,2,1.4,2.9c-0.2,4.7-2.3,7.3-7.4,6.4c-0.2-0.3-0.5-0.4-0.9-0.4c-1.2-1.8-2.2-3.8-4-5.1c-1.7-1.9-3.4-3.7-5.1-5.6
	c-0.5-0.4-0.9-0.7-1.4-1.1l-0.3,0c0,0-0.2-0.2-0.2-0.2c-3.7-4.4-9-4.7-14-4.8c-3.6-0.1-4.8-2.4-6.5-4.5c-0.7-0.8-0.4-1.9,0.4-2.7
	c0.8-0.8,2-1.2,2.7-0.4c3.2,3.8,5.4,1.7,7.4-1.2c1,0.2,2,0.4,3,0.6c2.5,2.1,5.5,2.5,8.5,3c0.8,0.1,1.7,0.2,2.5,0.3
	C-268.7-187.1-267.8-186.4-266.5-186.2z"/>
<path class="st0" d="M-308.4-201c0.1,3.5-1,5.2-3.4,6c-2.6,0.9-5,0.1-6.1-2.1c-4.3-8.6-8.1-17.5-10.6-26.8c-0.6-2.4,0.6-4.6,3-5.7
	c2.3-1,4.8-0.5,5.7,1.6C-315.6-218.7-311.9-209.4-308.4-201z"/>
<path class="st0" d="M-323.5-132.6c-5.9,3.2-10.4,8.1-15.5,12.3c-2.9,2.4-5.7,3.9-8.7,0.7c-3.1-3.3-1.2-6,1.5-8.5
	c5.8-5.4,12.1-10.3,18.6-14.9c1.3-0.9,2.6-1.3,4.2-1.4C-317.6-140.3-317.6-138.4-323.5-132.6z"/>
<path class="st0" d="M-254.7-192.6c0.6-2.5,2-4.6,3.8-6.2c4.8-4.1,9.7-8,14.7-11.9c2.9-2.2,5.9-2.5,8.2,0.8c2.2,3.1,0.7,5.6-2,7.7
	c-5.5,4.3-11.2,8.2-15.6,13.7c-1.5,1.9-3.9,2.4-6.3,1.2C-254.1-188.3-254.8-190.2-254.7-192.6z"/>
<path class="st0" d="M-351-180.7c6.5,1.3,12.9,2.4,19.2,3.8c2.9,0.7,4.6,2.8,3.9,5.9c-0.6,3-2.6,4.8-5.7,4.2
	c-6.5-1.1-13.1-2.3-19.6-3.7c-3-0.7-4.5-3-4-6C-356.6-179.8-354-180.9-351-180.7z"/>
<path class="st0" d="M-255.4-132.3c3.3,0,5.4,1.6,6.9,4.6c2.1,4.3,4.2,8.5,7.2,12.4c0,1.4,0.7,2.4,1.9,3.1c1.2,2.8,1.2,5.5-0.9,8
	c-2.4,1-4.7,0.9-7-0.2c-0.7-1-1.3-1.9-2-2.9c-1.3-3-2.7-5.8-4.9-8.2c-0.3-0.6-0.6-1.2-0.9-1.8c0-0.8-0.3-1.5-1.1-2
	c-0.3-1.5-1-2.9-2.1-4c-0.3-0.5-0.6-0.9-0.9-1.4c0-1.2,0-2.4-0.1-3.6c0.3-0.7,0.7-1.3,1-2c0.3-0.3,0.6-0.6,0.9-1
	C-256.7-131.6-256.1-131.9-255.4-132.3z"/>
<path class="st2" d="M-285.3-205.9c1.3-6,2.4-12.2,3.9-18.3c0.7-2.7,3.1-3.3,5.6-3c2.7,0.3,4.4,2.1,4.2,4.7
	c-0.6,6.8-1.8,13.5-3.9,20c-0.8,2.6-3.3,3.1-5.8,2.6C-284.2-200.7-284.9-203.2-285.3-205.9z"/>
<path class="st0" d="M-295.5-116.4c0.7-0.7,1.4-1.3,2.1-2c3.7-0.7,6.4,0.4,8,4c0,0.7,0,1.3,0,2c-0.9,0.9-0.9,1.9-0.7,3
	c-0.1,1.2-0.3,2.4-0.4,3.6c-1,1.7-1.6,3.4-1.3,5.4c-2.2,4.7-3.9,5.2-9.5,3c-0.4-0.7-0.7-1.3-1.1-2c0-1.3,0-2.7,0-4
	C-296.7-107.5-296.7-112.1-295.5-116.4z"/>
<path class="st3" d="M-238.3-165.1c2.4,0.5,5.8,1.1,9.2,1.9c3.2,0.8,3.9,3.2,3.7,6.1c-0.3,3.3-2.7,4.2-5.3,4
	c-3.5-0.2-6.9-1-10.3-1.6c-3.5-0.6-5.3-3-4.7-6.4C-245.1-164.3-242.6-165.6-238.3-165.1z"/>
<path class="st4" d="M-310.3-155.3c-1.5-1.1-1.4-2.8-1-4.1c1.8-6.3-4.1-5.7-7-7.9c0,0-0.6,0.7-0.9,1.1c0,0-0.2-0.2-0.2-0.2
	c0-1,0-2-0.1-2.9c2.1-4.6,4.1-9.3,7.5-13.2c1.2-1.3,2.3-2.8,4.3-3c1.8,1.3-3.5,3.1,0.2,4.1c2.5,0.7,4.7,2.4,7.5,2.3
	c-0.1,0.3-0.1,0.6-0.2,0.9c-1.9,0.7-3.2,2.1-4.2,3.8c-3.2,2.2-4.2,5.6-4.7,9.2c-0.1,0.6-0.2,1.2-0.3,1.8c-1.3,1.9-0.8,4-0.5,6
	C-310.1-156.7-310.2-156-310.3-155.3z"/>
<path class="st5" d="M-277.2-150.3c-0.3-2.5-0.3-5.2-3.4-6c-2.6-0.7-4.7,0-6.4,2.5c-2.2,3.2-3.9,0.6-5.5-1c-1.9-2-2.4-4,0.1-5.8
	c3.2-2.4,7.1-2.5,10.5-1.3c4.7,1.5,9.1,4,10.7,9.4C-273.2-151.8-275.2-151.1-277.2-150.3z"/>
<g>
	<path class="st3" d="M-279.5-381.3c0.4,0.8,1.2,1,2,1c0.6,1.2,1.6,1.9,2.9,2.2c2,2,3.9,3.9,5.9,5.9c0.3,1.3,0.9,2.3,2.2,2.9
		c2.7,5,5.4,10,8.1,15c0.9,4,1.9,8,2.8,12c0,1.7,0,3.3,0,5c-0.9,0.9-0.9,1.9-0.6,3c-0.7,3.6-2.9,6.7-4.5,9.9c-3,2.4-5.9,4.7-8.9,7.1
		c-0.7,0.3-1.3,0.7-2,1c-0.8,0-1.5,0.2-2,0.9c-2.3,0.8-4.6,1.6-7,2.3c-0.8-0.2-1.5-0.1-2,0.6c-1,0.1-2,0.2-3,0.4
		c-5,0.3-10,0.6-14.9,1c-1-0.1-2-0.2-3-0.4c-0.9-0.9-1.9-0.8-3.1-0.6c-0.7-0.1-1.3-0.3-2-0.4c-0.5-0.7-1.2-0.9-2-0.7
		c-0.5-0.1-1.1-0.2-1.6-0.3c-1.3-1-2.7-1.8-4.3-2c-2.3-1.3-4.5-2.7-6.8-4c-0.4-0.3-0.8-0.6-1.2-0.9c-0.8-0.6-1.5-1.3-2.3-1.9
		c-3.4-4.2-7.1-8.3-9.8-13.1c-0.7-2-1.5-4-2.2-6c0.2-0.8,0-1.5-0.7-2c-0.1-0.7-0.2-1.3-0.4-2c0.2-2.4,0.6-4.6,3.4-5.3
		c0.7,0.1,1.3,0.2,2,0.3c1.1,1.5,1.7,3.1,2.1,5c1.6,7.2,5.3,13.1,10.9,18c14.3,12.5,35.9,10.7,49.2,3.4c7.7-4.2,11-12.1,9.2-20.7
		c-1.7-8.2-5.4-15.3-10.5-21.8c-9.2-11.8-24.5-14.9-37.5-7.5c-4.6,2.6-8,6.4-9.3,11.7c-5,9.5-1.7,17.9,8.7,22.2
		c0.9,0.2,2.3,1,2.6-0.2c0.4-1.7-1.4-1.2-2.3-1.6c-9.3-6.6-10-8.6-6.7-20.2c1.4-1,2.7-2,4.1-2.8c10.3-6.6,25.4-6.3,34.8,0.8
		c8.4,6.3,10.2,17,3.5,24.4c-7.9,8.8-18.3,12.7-29.7,9.6c-11.5-3.1-21.8-8.7-24.2-22.3c0.1-2,0.2-4,0.4-5.9c1-1.5,1.6-3.2,1.5-5.1
		c0.5-1.3,1-2.6,1.5-3.9c0.8-0.4,1-1.2,1-2c2.6-3.7,5.3-7.2,8.9-10c0.9,0,1.5-0.4,1.9-1.2c0.8,0,1.6-0.2,2-1c1.8-0.4,3.6-0.7,5-1.9
		c2-0.4,4-0.8,6-1.2c5.3,0,10.7-0.6,16,0.8c0.7,0.1,1.3,0.2,2,0.3C-282.4-382.1-281-381.5-279.5-381.3z M-299.3-336
		c6.3-0.4,12.4-2.3,17.2-7.2c3.9-4,4.3-7.7,1.6-12.1c-5.6-9-24.9-10.2-31.6-2c-1.7,2.1-1.8,4.1,0,6.3c3.6,4.3,12.3,4.2,15.8-0.6
		c1.5-2,3-3.5,5.3-2.1c2.7,1.6,1.7,4,0.6,6.1c-2.5,4.8-7.5,5.5-11.9,7.3c-1.8,0.7-5.3-1.4-5.3,1.5c0,2.3,3.7,2.2,5.9,2.7
		C-301-336-300.4-336-299.3-336z"/>
	<path class="st3" d="M-305.8-394.2c-0.1-1.3-0.3-2.7-0.4-4c0.8-7,0.8-14,0-21c0-0.7,0.1-1.5,0.1-2.2c1.9-3.8,4.5-3.4,7.4-1.2
		c0,8.4,0.1,16.8,0,25.1c-0.1,4.9-1.7,5.8-6.6,4.2C-305.5-393.6-305.6-393.9-305.8-394.2z"/>
	<path class="st2" d="M-362.4-355.1c5,0,9.9,0,14.9,0c0.9,0.7,2,0.7,3.1,0.6c0.6,0.7,1.2,1.5,1.8,2.2c0,1.9-0.9,3.5-2.3,4.7
		c-7.5,0-14.9,0.1-22.4,0c-4.9-0.1-5.9-1.7-4.1-6.6C-368.5-354.9-365.3-353.8-362.4-355.1z"/>
	<path class="st2" d="M-252.2-354.1c4.2-0.1,8.5-0.3,12.7-0.4c5.3,0.2,10.6,0.3,15.9,0.5c0,0,0,0,0,0c0.4,0.6,0.8,1.2,1.2,1.8
		c0.2,3.6-1.7,5-5.2,5c-8.1-0.1-16.3-0.1-24.4-0.2C-253.5-349.6-254.2-351.9-252.2-354.1z"/>
	<path class="st2" d="M-332.7-386.4c-0.1,1.8-0.8,3.1-2.4,3.7c-1.6,0.6-3.4,0.3-3.9-1.2c-1.8-5.2-6.6-5.6-10.7-7.2
		c-1.8-0.7-3.7-1.5-5.3-2.6c-1.4-0.9-1.6-2.5-0.8-4c0.7-1.5,2-2.7,3.6-2.1c5.2,2,11,2.9,15.6,6.4
		C-334.4-391.7-333.1-389.1-332.7-386.4z"/>
	<path class="st2" d="M-298.4-287.7c0,3.6,0,7.3,0,10.9c0,2.1-0.8,3.5-3.2,3.6c-2.5,0.1-3.8-1.2-3.8-3.5c-0.1-7.4-0.1-14.9,0-22.3
		c0-2.2,1.2-3.9,3.7-3.7c2.5,0.1,3.3,1.8,3.3,4.1C-298.4-295-298.4-291.4-298.4-287.7z"/>
	<path class="st2" d="M-259.5-317.3c2,1.3,4.1,2.7,6.1,4c0.8,1.6,2.1,2.7,3.8,3.2c0.3,0.3,0.7,0.6,1,0.9c0.8,1.7,2.2,2.7,4,3.1
		c1.9,2.3,3.9,4.5,2,7.8c-2,1.4-3.9,0.8-5.8-0.2c0-0.3-0.1-0.5-0.3-0.6c-0.3-0.3-0.6-0.6-0.9-0.9c-0.6-0.4-1.2-0.8-1.8-1.2
		c-0.4-0.3-0.8-0.6-1.1-1c-0.4-0.3-0.8-0.6-1.2-0.9c-0.5-1.2-1.5-2-2.7-2.3c-1.8-3.7-7.3-4-8.1-8.7
		C-263.2-316-261.9-317.5-259.5-317.3z"/>
	<path class="st2" d="M-351.2-300.8c-0.2-1.8-0.3-3.6,0.9-5.2c1.6-0.7,2.9-1.7,3.7-3.4c2.8-2.9,5.5-5.9,8.3-8.8
		c0.4-0.4,0.7-0.7,1.1-1.1c0.9-0.3,1.8-0.6,2.8-0.9c1,0.6,2,1.2,3,1.8c0,0,0,0,0,0c0.1,1,0.3,2,0.4,3c-5.5,5.3-9.6,12-16.4,16
		C-348.7-299.7-350-300.3-351.2-300.8z"/>
	<path class="st2" d="M-251.4-395.1c1.5,0,3.1,0,4.6,0c0.5,1.3,1,2.6,1.4,3.9c-0.7,1-1.4,2-2.1,3c-4.2,1.6-8.6,2.8-11.1,7
		c-2,1.3-4,1.8-5.8-0.2c-2.2-2.5-0.6-4.6,1-6.6c1.3-0.3,2.3-1,3-2.1c0,0,0,0,0,0c1.4-0.1,2.4-0.7,3.1-1.9c0,0,0,0,0,0
		C-255.2-392.7-253.1-393.6-251.4-395.1z"/>
</g>
<path class="st4" d="M-283.5-192c-2.1,2.8-4.2,5-7.4,1.2c-0.6-0.8-1.9-0.4-2.7,0.4c-0.8,0.8-1.1,1.9-0.4,2.7
	c1.7,2.1,2.9,4.5,6.5,4.5c5,0.1,10.3,0.4,14,4.8c-0.6,0-1.3-0.1-1.9-0.1c-0.7-0.3-1.3-0.7-2-1c-0.8-0.9-1.9-1-3-1
	c-0.6-0.7-1.3-0.8-2.1-0.6c-0.6-0.1-1.3-0.2-1.9-0.3c-2.4-1-4.7-1.3-7.1,0c-0.6,0.1-1.3,0.2-1.9,0.3c-0.7-0.1-1.3-0.1-2-0.2
	c-0.6-1.2,2-3.1-0.7-3.7c-2.7-0.6-3.7-2.9-5.4-4.5C-295.8-192.7-289.7-193-283.5-192z"/>
<path class="st1" d="M-301.5-189.5c1.7,1.6,2.7,3.9,5.4,4.5c2.7,0.6,0.1,2.5,0.7,3.7c-0.1,0.2-0.2,0.5-0.2,0.7
	c-1.1,0.1-2.1,0.3-2.9,1.2c-0.6,0.1-1.1,0.2-1.7,0.3c-2.8,0.2-4.9-1.6-7.5-2.3c-3.7-1,1.6-2.8-0.2-4.1c0,0,0.1,0.1,0.1,0.1
	c0.4-0.3,0.7-0.7,1.1-1c0,0-0.1,0-0.1,0c1.6,0.3,2.6-0.4,3.2-1.9C-302.8-188.8-302.1-189.2-301.5-189.5z"/>
<path class="st5" d="M-323.5-132.6c5.9-5.8,5.9-7.7,0.1-11.6c0.6-2.6,1.6-4.9,3.1-7.1c0.3,0.1,0.5,0.1,0.8,0.2c0,0,0-0.1,0-0.1
	c-0.1,1.2,0.1,2.4,1,3.3c0,1,0.1,2,1,2.7c0,0.8,0.2,1.6,1,2.1c0,0,0,0,0,0c0,0.9,0.4,1.6,1.1,2.1c0.7,1.3,1.3,2.6,2,3.8
	c-2.5-0.5-3.7,1.1-5.2,2.7C-319.9-133.5-320.7-130.4-323.5-132.6z"/>
<path class="st5" d="M-295.5-116.4c-1.2,4.3-1.1,8.9-2.9,13C-300.2-108.3-298.8-114.4-295.5-116.4z"/>
<path class="st5" d="M-282.4-135.3c-5.6,1.7-10.6,0.3-15.2-2.9C-292.5-137.3-287.5-136.3-282.4-135.3z"/>
<path class="st5" d="M-261.4-166c5.1,1,7.2-1.6,7.4-6.4c3.4,2.2,1.2,4.6-0.3,6.1C-256.3-164.6-258.9-162.4-261.4-166z"/>
<path class="st5" d="M-269.7-147.4c-0.1,4.2-2,7.3-5.6,9.3C-273.7-141.3-273.8-145.7-269.7-147.4z"/>
<path class="st5" d="M-285.4-114.3c-1.5-3.6-4.3-4.7-8-4c1.7-2.9,4.2-2.4,6.5-1.1C-285.1-118.4-283.3-116.8-285.4-114.3z"/>
<path class="st5" d="M-320.6-153.3c-2.5-3-2.5-8.1,0-11C-320.6-160.7-320.6-157-320.6-153.3z"/>
<path class="st5" d="M-301.3-148.5c2.6,2,5.3,4.1,7.9,6.1C-297.5-141.3-300.6-143.7-301.3-148.5z"/>
<path class="st5" d="M-288.4-124.2c3.3-0.2,6.7-0.3,10-0.5C-281.6-122.5-284.9-120.3-288.4-124.2z"/>
<path class="st5" d="M-309.2-165.3c0.6-3.6,1.5-7,4.7-9.2C-304.8-170.8-306.7-167.9-309.2-165.3z"/>
<path class="st5" d="M-254.3-115.6c2.3,2.4,3.7,5.2,4.9,8.2C-253.3-108.7-254.7-111.6-254.3-115.6z"/>
<path class="st5" d="M-272.4-169.4c-3-1.1-5.9-2.2-8.9-3.3C-277.4-174-274.4-173-272.4-169.4z"/>
<path class="st4" d="M-320.6-153.3c0-3.7,0-7.4,0-11c0.1-0.6,0.2-1.3,0.3-1.9c0.3,0,0.6,0,0.8-0.1c0,0,0.2,0.2,0.2,0.2
	c-0.1,5-0.2,10-0.3,15c-0.3,0-0.6-0.1-0.8-0.2C-320.4-152-320.5-152.7-320.6-153.3z"/>
<path class="st5" d="M-291.5-181.4c2.4-1.3,4.7-1,7.1,0C-286.7-179.7-289.1-179.7-291.5-181.4z"/>
<path class="st5" d="M-291.4-142c2.3-0.1,4.7-0.1,7-0.2C-286.6-139.1-289-139.5-291.4-142z"/>
<path class="st4" d="M-272-188.5c-3-0.4-6-0.9-8.5-3C-277.1-191.9-274.5-190.4-272-188.5z"/>
<path class="st5" d="M-259.2-144.3c0-2,0.1-4,0.1-6C-256.5-148.3-256.4-146.3-259.2-144.3z"/>
<path class="st5" d="M-247.4-104.5c2.3,1.1,4.6,1.2,7,0.2C-243.2-101.5-245-101.5-247.4-104.5z"/>
<path class="st5" d="M-298.1-169.7c-0.7,1.4-1.8,2.1-3.2,2.7c0.1-1.4-0.8-3.1,0.9-4C-299.2-171.5-298.6-170.6-298.1-169.7z"/>
<path class="st5" d="M-261.5-137.4c0.4-1.8,0.8-3.5,2-5C-257.6-139.7-258.9-138.3-261.5-137.4z"/>
<path class="st5" d="M-266.3-171.5c1.9,1.3,2.8,3.3,4,5.1C-265.4-166.7-266.6-168.5-266.3-171.5z"/>
<path class="st5" d="M-283.4-173.1c-1.7,0.7-3.4,0.6-5.1,0C-286.8-175-285.1-175-283.4-173.1z"/>
<path class="st5" d="M-263.4-161.3c-1.5-0.9-2.6-2.2-3.3-3.9C-263.4-165.8-263.3-163.7-263.4-161.3z"/>
<path class="st5" d="M-287.9-100.3c-0.2-2,0.3-3.7,1.3-5.4C-286.7-103.8-285.3-101.6-287.9-100.3z"/>
<path class="st5" d="M-266.5-186.2c-1.3-0.2-2.3-0.9-3-2C-266.6-190.3-266.9-187.7-266.5-186.2z"/>
<path class="st5" d="M-295.4-125.3c1.7,0.1,3.5-0.2,5,0.9C-292.4-122.6-293.8-124.5-295.4-125.3z"/>
<path class="st5" d="M-286.1-109.3c-0.2-1.1-0.3-2.2,0.7-3C-283.9-111-284.1-109.9-286.1-109.3z"/>
<path class="st5" d="M-310-157.5c-0.4-2-0.8-4.1,0.5-6C-309.5-161.5-308.9-159.4-310-157.5z"/>
<path class="st5" d="M-319.5-166.4c-0.3,0.1-0.6,0.1-0.8,0.1c-1.6-1.5-1.4-2.5,0.8-3C-319.5-168.4-319.5-167.4-319.5-166.4z"/>
<path class="st4" d="M-303.4-188.4c-0.6,1.4-1.6,2.2-3.2,1.9C-306-188-304.9-188.5-303.4-188.4z"/>
<path class="st5" d="M-263.5-134.4c0.2-1.3,0.8-2.4,2-3C-261.4-135.9-261.4-134.4-263.5-134.4z"/>
<path class="st5" d="M-239.4-112.3c-1.2-0.7-1.9-1.7-1.9-3.1C-239.3-115.2-239.4-113.7-239.4-112.3z"/>
<path class="st5" d="M-306.3-130.4c1.4,0.1,2.4,0.9,3.2,2C-304.7-128.3-306.3-128.1-306.3-130.4z"/>
<path class="st5" d="M-262.5-183.2c-1.3-0.3-2.3-0.9-2.9-2.1C-263.8-185.4-262.4-185.3-262.5-183.2z"/>
<path class="st5" d="M-255.4-175.3c-1.2-0.6-1.9-1.7-2.2-3C-255.4-178.3-255.4-176.8-255.4-175.3z"/>
<path class="st5" d="M-304.4-143.4c-1.2-0.6-1.9-1.6-2.1-2.9C-304.4-146.3-304.4-144.9-304.4-143.4z"/>
<path class="st5" d="M-271.2-152.5c1.1,0.8,1.6,1.8,1.4,3.2C-271.7-149.7-271.5-151.1-271.2-152.5z"/>
<path class="st5" d="M-277.3-179.5c0.7,0.3,1.3,0.7,2,1C-277.1-176.7-277.2-178.1-277.3-179.5z"/>
<path class="st5" d="M-300.4-127.2c0.8-0.1,1.5,0.1,2,0.9C-299.8-124.8-300.2-125.9-300.4-127.2z"/>
<path class="st5" d="M-255.4-132.3c-0.7,0.4-1.3,0.7-2,1.1C-257.2-132.5-257.1-133.9-255.4-132.3z"/>
<path class="st5" d="M-282.4-181.1c0.8-0.2,1.5-0.1,2.1,0.6C-281.6-178.8-282.1-179.6-282.4-181.1z"/>
<path class="st5" d="M-295.5-180.6c0-0.3,0.1-0.5,0.2-0.7c0.7,0.1,1.3,0.1,2,0.2C-293.8-179.6-294.3-178.8-295.5-180.6z"/>
<path class="st5" d="M-256.3-119.4c0.8,0.4,1,1.1,1.1,2C-256.5-117.6-258-117.6-256.3-119.4z"/>
<path class="st5" d="M-298.5-99.3c0.4,0.7,0.7,1.3,1.1,2C-298.7-97.5-299.9-97.7-298.5-99.3z"/>
<path class="st5" d="M-299.4-139.3c-1.3,0-1.9-0.8-2.4-1.9C-300.3-141.4-299.5-140.8-299.4-139.3z"/>
<path class="st5" d="M-259.5-153.3c-0.7-0.5-0.9-1.2-0.7-2C-258.8-155-257.9-154.6-259.5-153.3z"/>
<path class="st5" d="M-258.3-130.3c-0.3,0.7-0.7,1.3-1,2C-261-130-259.6-130.1-258.3-130.3z"/>
<path class="st5" d="M-278.4-136.3c-0.5,0.7-1.2,0.9-2,0.7C-280.1-137-279.6-137.8-278.4-136.3z"/>
<path class="st5" d="M-273.4-126.3c0.5-0.7,1.1-1.1,2-1.1C-271.6-126.1-271.8-124.8-273.4-126.3z"/>
<path class="st5" d="M-300.1-179.1c0.6-0.1,1.1-0.2,1.7-0.3c-0.3,0.8-1,1.1-1.8,1.1C-300.2-178.6-300.2-178.9-300.1-179.1z"/>
<path class="st5" d="M-290.5-172.7c-0.6,0.1-1.3,0.3-1.9,0.4C-292-173.3-291.3-173.5-290.5-172.7z"/>
<path class="st4" d="M-272.9-178.2c0.5,0.4,0.9,0.7,1.4,1.1C-271.9-177.5-272.4-177.8-272.9-178.2z"/>
<path class="st4" d="M-306.6-186.5c-0.4,0.3-0.7,0.7-1.1,1C-307.3-185.8-306.9-186.2-306.6-186.5z"/>
<path class="st5" d="M-304.2-153.8c0.3,0.5,0.6,1,0.8,1.5C-303.7-152.8-304-153.3-304.2-153.8z"/>
<path class="st5" d="M-307.4-131.3c0.4,0.3,0.7,0.6,1.1,0.9C-306.7-130.7-307-131-307.4-131.3z"/>
<path class="st5" d="M-259.3-124.7c0.3,0.5,0.6,0.9,0.9,1.4C-258.7-123.8-259-124.3-259.3-124.7z"/>
<path class="st5" d="M-264.4-133.3c0.3-0.4,0.6-0.7,0.9-1.1C-263.8-134-264.1-133.7-264.4-133.3z"/>
<path class="st4" d="M-318.6-148c-0.9-0.9-1.1-2.1-1-3.3C-318.1-150.5-318.4-149.2-318.6-148z"/>
<path class="st4" d="M-315.5-141.2c-0.7-0.5-1.1-1.2-1.1-2.1C-315.5-142.9-315.4-142.1-315.5-141.2z"/>
<path class="st4" d="M-316.6-143.2c-0.8-0.5-1-1.3-1-2.1C-316.6-144.9-316.4-144.1-316.6-143.2z"/>
<g>
	<path d="M64-66.6c-0.1-1.1-0.5-2.2-1.1-3.3c-0.7-1.1-1.6-2.1-2.8-2.9c-1.2-0.9-2.5-1.6-4.1-2.1c-1.6-0.5-3.3-0.8-5.2-0.8
		c-1.9,0-3.7,0.2-5.3,0.6c-1.6,0.4-3,1-4.1,1.7c-1.2,0.7-2.1,1.6-2.8,2.7c-0.7,1-1.1,2.2-1.2,3.4c-0.1,1.2,0.1,2.4,0.5,3.6
		c0.5,1.1,1.2,2.2,2.3,3.1c1.1,0.9,2.4,1.7,4,2.4c1.6,0.7,3.5,1.1,5.6,1.4l3.3,0.5c5.4,0.8,9.4,2.3,12.1,4.7c2.7,2.4,4,5.3,4,8.7
		c0,1.9-0.5,3.7-1.4,5.4c-1,1.7-2.3,3.1-3.9,4.3c-1.7,1.2-3.6,2.2-5.8,2.8c-2.2,0.7-4.5,1-7,1c-2.5,0-4.9-0.3-7.1-0.9
		c-2.3-0.6-4.2-1.5-5.9-2.7c-1.7-1.2-3.1-2.6-4-4.4c-1-1.7-1.4-3.7-1.3-5.9h3.4c-0.1,1.9,0.3,3.5,1.2,4.9c0.9,1.4,2,2.5,3.4,3.4
		s3,1.6,4.8,2c1.8,0.4,3.7,0.6,5.6,0.6c2.1,0,4.1-0.3,5.9-0.8c1.8-0.5,3.3-1.3,4.7-2.2c1.3-0.9,2.3-2,3.1-3.2
		c0.7-1.2,1.1-2.5,1.1-3.8c0-1.3-0.2-2.5-0.5-3.7c-0.4-1.2-1-2.2-2-3.2c-1-0.9-2.3-1.8-3.9-2.5c-1.6-0.7-3.8-1.3-6.3-1.7l-3.2-0.5
		c-5.7-0.8-9.8-2.4-12.4-4.7c-2.6-2.3-3.8-5.2-3.6-8.7c0.1-1.7,0.6-3.2,1.5-4.6c0.9-1.4,2.1-2.6,3.6-3.6c1.5-1,3.2-1.8,5.2-2.3
		c2-0.5,4.2-0.8,6.5-0.8c2.4,0,4.6,0.3,6.6,1c2,0.6,3.7,1.5,5.2,2.6c1.4,1.1,2.6,2.4,3.4,3.8c0.8,1.5,1.3,3,1.4,4.7H64z"/>
	<path class="st6" d="M31.1-67.6c0.1-2.2,0.8-4.2,1.9-6c1.1-1.7,2.6-3.2,4.4-4.4c1.7-1.2,3.8-2.1,6-2.7c2.2-0.6,4.7-0.9,7.3-0.9
		c1.1,0,2.1,0.1,3.2,0.2c-2.1-2.7-5-5-8.8-6.7c-5.5-2.5-11.2-2.4-16.9-1c-5.9,1.4-10,4.9-11.7,10.8c-1.9,6.5-1,12.8,1.6,18.9
		c2.3,5.4,6.7,8.5,12.4,9.6c5.2,1,10.5,0.8,15.6-0.8c0.8-0.3,1.6-0.5,2.3-0.8c-5.8-1-10-2.7-12.8-5.2C32.4-59.6,30.9-63.3,31.1-67.6
		z"/>
	<path class="st3" d="M7.5-67.9c-2.3,0.8-4.6,1.7-6.7,2.9c-1.7,0.9-0.2,2.5-0.1,3.6c0.1,1,1.3,0.4,1.9,0.1C4.4-62,6.2-62.8,8-63.5
		c1-0.4,1.5-1.1,1.4-2.3C9.1-66.7,9.4-68.6,7.5-67.9z"/>
	<path class="st2" d="M13-85.5c-1.8-0.9-3.6-1.9-5.5-2.7c-1.1-0.5-1.5,0-1.4,1.2c0.2,2.4,4.7,6.2,7,5.8c0.9-0.1,0.8-0.9,0.9-1.7
		C13.6-83.6,14.1-84.9,13-85.5z"/>
	<path class="st2" d="M55.4-89.3c0.9-0.7,1.7-1.6,2.5-2.5c0.6-0.6,1.1-1.3,0.9-2.3c-0.3-0.7,0.2-2-0.9-2.3c-0.9-0.3-1.4,0.7-2.1,1.2
		c-1.1,1-2.1,1.9-3.1,2.9c-1.5,1.5-0.6,3.4,0.2,4.4C53.8-86.9,54.7-88.7,55.4-89.3z"/>
	<path class="st4" d="M39.1-93.3c0.5,0,0.6-0.5,0.7-0.9c0.5-2.6,1.1-5.1,1.5-7.4c-0.1-1-0.2-1.7-0.3-2.3c-0.1-0.5-0.3-1-0.9-1.1
		c-0.6,0-0.9,0.5-1,1c-0.5,3.2-1.9,6.4-0.8,9.7C38.4-93.9,38.4-93.3,39.1-93.3z"/>
	<path class="st2" d="M18.7-51.6c-2.9,0.4-4.8,4.4-3.4,6.8c0.2,0.3,0.4,0.5,0.8,0.4c1-0.2,4.3-4,4.2-5.1
		C20.1-50.4,20.4-51.9,18.7-51.6z"/>
	<path class="st4" d="M23.3-91.8c0.3,0.4,0.6,0.9,1.2,0.7c0.7-0.2,0.7-0.9,0.7-1.6c-0.3-2.4-1.5-4.5-2.6-6.7
		c-0.2-0.4-0.6-0.6-1.1-0.4c-0.4,0.2-0.6,0.6-0.5,1.1C21.5-96.3,21.9-93.9,23.3-91.8z"/>
	<g>
		<path d="M64-66.6c-0.1-1.1-0.5-2.2-1.1-3.3c-0.7-1.1-1.6-2.1-2.8-2.9c-1.2-0.9-2.5-1.6-4.1-2.1c-1.6-0.5-3.3-0.8-5.2-0.8
			c-1.9,0-3.7,0.2-5.3,0.6c-1.6,0.4-3,1-4.1,1.7c-1.2,0.7-2.1,1.6-2.8,2.7c-0.7,1-1.1,2.2-1.2,3.4c-0.1,1.2,0.1,2.4,0.5,3.6
			c0.5,1.1,1.2,2.2,2.3,3.1c1.1,0.9,2.4,1.7,4,2.4c1.6,0.7,3.5,1.1,5.6,1.4l3.3,0.5c5.4,0.8,9.4,2.3,12.1,4.7c2.7,2.4,4,5.3,4,8.7
			c0,1.9-0.5,3.7-1.4,5.4c-1,1.7-2.3,3.1-3.9,4.3c-1.7,1.2-3.6,2.2-5.8,2.8c-2.2,0.7-4.5,1-7,1c-2.5,0-4.9-0.3-7.1-0.9
			c-2.3-0.6-4.2-1.5-5.9-2.7c-1.7-1.2-3.1-2.6-4-4.4c-1-1.7-1.4-3.7-1.3-5.9h3.4c-0.1,1.9,0.3,3.5,1.2,4.9c0.9,1.4,2,2.5,3.4,3.4
			s3,1.6,4.8,2c1.8,0.4,3.7,0.6,5.6,0.6c2.1,0,4.1-0.3,5.9-0.8c1.8-0.5,3.3-1.3,4.7-2.2c1.3-0.9,2.3-2,3.1-3.2
			c0.7-1.2,1.1-2.5,1.1-3.8c0-1.3-0.2-2.5-0.5-3.7c-0.4-1.2-1-2.2-2-3.2c-1-0.9-2.3-1.8-3.9-2.5c-1.6-0.7-3.8-1.3-6.3-1.7l-3.2-0.5
			c-5.7-0.8-9.8-2.4-12.4-4.7c-2.6-2.3-3.8-5.2-3.6-8.7c0.1-1.7,0.6-3.2,1.5-4.6c0.9-1.4,2.1-2.6,3.6-3.6c1.5-1,3.2-1.8,5.2-2.3
			c2-0.5,4.2-0.8,6.5-0.8c2.4,0,4.6,0.3,6.6,1c2,0.6,3.7,1.5,5.2,2.6c1.4,1.1,2.6,2.4,3.4,3.8c0.8,1.5,1.3,3,1.4,4.7H64z"/>
		<path d="M84.3-29.8c-1.5,0-2.9-0.2-4.2-0.6c-1.3-0.4-2.4-1.1-3.3-2c-0.9-0.9-1.7-2-2.2-3.4c-0.5-1.4-0.8-3.1-0.8-5V-66h3.3v25.7
			c0,2.5,0.7,4.4,2,5.7c1.4,1.3,3.1,1.9,5.2,1.9c2.7,0,5.4-0.4,7.8-1.3c2.5-0.9,4.8-1.9,6.9-3v-29h3.3v35.6H99v-3.4
			c-1.1,0.5-2.2,1-3.4,1.4c-1.2,0.5-2.4,0.9-3.6,1.3c-1.3,0.4-2.5,0.7-3.8,0.9C86.9-29.9,85.6-29.8,84.3-29.8z"/>
		<path d="M126-66.1c1.5,0,2.9,0.2,4.2,0.6c1.3,0.4,2.4,1.1,3.3,1.9c0.9,0.9,1.7,2,2.2,3.4c0.5,1.4,0.8,3.1,0.8,5v24.7h-3.3v-25.3
			c0-2.5-0.7-4.4-2-5.7c-1.4-1.3-3.1-1.9-5.2-1.9c-2.7,0-5.4,0.4-7.8,1.3c-2.5,0.9-4.8,1.9-6.9,3v28.5H108V-66h3.3v3.9
			c1.1-0.5,2.2-1,3.4-1.4c1.2-0.5,2.4-0.9,3.7-1.3c1.3-0.4,2.5-0.7,3.8-0.9C123.4-65.9,124.7-66.1,126-66.1z"/>
		<path d="M143.5-39.8c0,2.3,0.7,4.1,2.2,5.4c1.4,1.2,3.3,1.9,5.6,1.9c2.3,0,4.2-0.6,5.6-1.9c1.4-1.2,2.2-3,2.2-5.4v-38.3h3.3v38.3
			c0,1.4-0.3,2.8-0.8,4c-0.5,1.2-1.3,2.3-2.2,3.2c-1,0.9-2.1,1.6-3.5,2.2c-1.4,0.5-2.9,0.8-4.6,0.8c-1.7,0-3.2-0.3-4.6-0.8
			c-1.4-0.5-2.5-1.3-3.5-2.2c-1-0.9-1.7-2-2.2-3.2c-0.5-1.2-0.8-2.5-0.8-4H143.5z"/>
		<path d="M178.8-29.8c-1.5,0-2.9-0.2-4.2-0.6c-1.3-0.4-2.4-1.1-3.3-2c-0.9-0.9-1.7-2-2.2-3.4c-0.5-1.4-0.8-3.1-0.8-5V-66h3.3v25.7
			c0,2.5,0.7,4.4,2,5.7c1.4,1.3,3.1,1.9,5.2,1.9c2.7,0,5.4-0.4,7.8-1.3c2.5-0.9,4.8-1.9,6.9-3v-29h3.3v35.6h-3.3v-3.4
			c-1.1,0.5-2.2,1-3.4,1.4c-1.2,0.5-2.4,0.9-3.6,1.3c-1.3,0.4-2.5,0.7-3.8,0.9C181.4-29.9,180.1-29.8,178.8-29.8z"/>
		<path d="M234.4-30.3V-53h-28.1v22.7H203v-47.8h3.3v22.2h28.1v-22.2h3.3v47.8H234.4z"/>
		<path d="M256.3-31.4L241.9-66h3.5l12.7,30.7L272.9-66h3.5l-23.8,49.4h-3.4L256.3-31.4z"/>
		<path d="M293.7-32.6c1.9,0,3.6-0.2,5-0.7c1.5-0.5,2.7-1.1,3.8-1.9c1-0.8,1.8-1.7,2.4-2.7s0.8-2.1,0.8-3.2v-0.6h3.3v1.2
			c0,1.4-0.3,2.7-1,4s-1.7,2.5-3,3.5c-1.3,1-2.9,1.9-4.8,2.5c-1.9,0.6-4,0.9-6.4,0.9c-2.5,0-4.8-0.4-6.7-1.2c-2-0.8-3.6-1.8-5-3.2
			c-1.4-1.3-2.4-2.9-3.1-4.7c-0.7-1.8-1-3.7-1-5.8v-7.4c0-2.1,0.3-4,1-5.8c0.7-1.8,1.7-3.4,3.1-4.7c1.4-1.3,3-2.4,5-3.2
			c2-0.8,4.2-1.2,6.7-1.2c2.5,0,4.8,0.4,6.7,1.2s3.6,1.8,5,3.2c1.4,1.3,2.4,2.9,3.1,4.7c0.7,1.8,1,3.7,1,5.8v4.8h-28.4v2
			c0,1.8,0.3,3.5,0.8,5c0.5,1.5,1.4,2.9,2.4,3.9s2.4,1.9,3.9,2.6C289.8-32.9,291.6-32.6,293.7-32.6z M306.2-51.4
			c0-1.8-0.3-3.5-0.8-5c-0.5-1.5-1.4-2.9-2.4-3.9c-1.1-1.1-2.4-1.9-3.9-2.6c-1.6-0.6-3.4-0.9-5.4-0.9s-3.8,0.3-5.4,0.9
			c-1.6,0.6-2.9,1.5-3.9,2.6c-1.1,1.1-1.9,2.4-2.4,3.9c-0.5,1.5-0.8,3.2-0.8,5v1.5h25.2V-51.4z"/>
		<path d="M330.1-66.7c2.6,0,4.9,0.4,6.9,1.2s3.7,1.8,5,3.2c1.4,1.3,2.4,2.9,3.1,4.7c0.7,1.8,1.1,3.7,1.1,5.8v7.4
			c0,2.1-0.4,4-1.1,5.8c-0.7,1.8-1.8,3.4-3.1,4.7c-1.4,1.3-3.1,2.4-5,3.2c-2,0.8-4.3,1.2-6.9,1.2c-2.6,0-4.9-0.4-6.9-1.2
			c-2-0.8-3.7-1.8-5-3.2c-1.4-1.3-2.4-2.9-3.1-4.7c-0.7-1.8-1.1-3.7-1.1-5.8v-7.4c0-2.1,0.4-4,1.1-5.8c0.7-1.8,1.8-3.4,3.1-4.7
			c1.4-1.3,3.1-2.4,5-3.2C325.2-66.4,327.5-66.7,330.1-66.7z M317.3-45c0,1.8,0.3,3.5,0.8,5c0.6,1.5,1.4,2.9,2.5,3.9s2.4,1.9,4,2.6
			c1.6,0.6,3.4,0.9,5.6,0.9c2.1,0,3.9-0.3,5.5-0.9c1.6-0.6,3-1.5,4-2.6s1.9-2.4,2.5-3.9c0.6-1.5,0.8-3.2,0.8-5v-6.3
			c0-1.8-0.3-3.5-0.8-5c-0.6-1.5-1.4-2.9-2.5-3.9c-1.1-1.1-2.4-1.9-4-2.6c-1.6-0.6-3.5-0.9-5.5-0.9c-2.1,0-4,0.3-5.6,0.9
			c-1.6,0.6-2.9,1.5-4,2.6c-1.1,1.1-1.9,2.4-2.5,3.9c-0.6,1.5-0.8,3.2-0.8,5V-45z"/>
		<path d="M369.4-66.1c1.5,0,2.9,0.2,4.2,0.6c1.3,0.4,2.4,1.1,3.3,1.9c0.9,0.9,1.7,2,2.2,3.4c0.5,1.4,0.8,3.1,0.8,5v24.7h-3.3v-25.3
			c0-2.5-0.7-4.4-2-5.7c-1.4-1.3-3.1-1.9-5.2-1.9c-2.7,0-5.4,0.4-7.8,1.3c-2.5,0.9-4.8,1.9-6.9,3v28.5h-3.3V-66h3.3v3.9
			c1.1-0.5,2.2-1,3.4-1.4c1.2-0.5,2.4-0.9,3.7-1.3c1.3-0.4,2.5-0.7,3.8-0.9C366.8-65.9,368.1-66.1,369.4-66.1z"/>
	</g>
</g>
<g>
	<g>
		<path class="st6" d="M58.3-330.8c-0.1,9-3.5,13.5-12.1,16.2c-5.1,1.6-10.4,1.8-15.6,0.8c-5.7-1.1-10-4.2-12.4-9.6
			c-2.6-6.1-3.5-12.4-1.6-18.9c1.7-5.9,5.8-9.4,11.7-10.8c5.7-1.3,11.4-1.4,16.9,1C54.3-347.9,58.4-340.7,58.3-330.8z"/>
		<path class="st3" d="M73.3-344.7c0.2,1.3-0.5,2-1.7,2.4c-2.2,0.8-4.4,1.7-6.6,2.6c-0.7,0.3-1.8,1-2-0.4c-0.2-1.2-1.6-2.7,0.3-3.6
			c2.5-1.1,5.2-2.1,7.8-3C73-347.4,73.2-346,73.3-344.7z"/>
		<path class="st3" d="M9.4-329.9c0.1,1.3-0.4,1.9-1.4,2.3c-1.8,0.8-3.6,1.5-5.4,2.3c-0.7,0.3-1.8,0.9-1.9-0.1
			c-0.1-1.2-1.6-2.7,0.1-3.6c2.1-1.2,4.4-2.1,6.7-2.9C9.4-332.6,9.1-330.7,9.4-329.9z"/>
		<path class="st2" d="M14-346.9c-0.1,0.8,0,1.6-0.9,1.7c-2.3,0.4-6.8-3.4-7-5.8c-0.1-1.2,0.3-1.7,1.4-1.2c1.9,0.8,3.7,1.8,5.5,2.7
			C14.1-348.9,13.6-347.6,14-346.9z"/>
		<path class="st2" d="M58.9-358.1c0.2,1-0.3,1.7-0.9,2.3c-0.8,0.8-1.6,1.7-2.5,2.5c-0.8,0.6-1.7,2.4-2.4,1.4
			c-0.8-1-1.6-2.9-0.2-4.4c1-1,2.1-2,3.1-2.9c0.6-0.5,1.1-1.5,2.1-1.2C59.1-360.1,58.6-358.8,58.9-358.1z"/>
		<path class="st4" d="M41.4-365.7c-0.5,2.3-1,4.8-1.5,7.4c-0.1,0.4-0.2,0.9-0.7,0.9c-0.7,0.1-0.7-0.5-0.8-1
			c-1.1-3.4,0.3-6.5,0.8-9.7c0.1-0.5,0.4-1,1-1c0.6,0,0.8,0.6,0.9,1.1C41.2-367.3,41.2-366.7,41.4-365.7z"/>
		<path class="st7" d="M70.4-319.5c0,2-0.7,2.6-2.3,1.7c-1.9-1-4-1.8-4.1-4.5c-0.1-1.5,0.2-2.3,1.7-1.5
			C67.6-322.7,70.5-322.4,70.4-319.5z"/>
		<path class="st2" d="M20.3-313.5c0,1.1-3.3,4.9-4.2,5.1c-0.4,0.1-0.6-0.1-0.8-0.4c-1.4-2.4,0.5-6.4,3.4-6.8
			C20.4-315.9,20.1-314.4,20.3-313.5z"/>
		<path class="st4" d="M55.9-303.9c0.1,1.3,0,2-0.6,2.2c-0.9,0.3-1.1-0.5-1.4-1.2c-1.1-2.7-2.3-5.5-2.5-8.5c0-0.5-0.3-1,0.3-1.3
			c0.6-0.3,1,0.1,1.2,0.6C54.2-309.3,55.5-306.4,55.9-303.9z"/>
		<path class="st4" d="M35-304.5c0.3-1.5,0.7-3.3,1-5c0.1-0.5,0.4-1,1-0.9c0.5,0,0.7,0.5,0.8,0.9c0.7,2.9-0.1,5.7-1,8.4
			c-0.3,0.8-1.1,0.8-1.4-0.1C35.3-302.2,35.2-303.3,35-304.5z"/>
		<path class="st4" d="M25.2-356.7c0,0.7,0,1.4-0.7,1.6c-0.6,0.2-0.9-0.3-1.2-0.7c-1.4-2.1-1.9-4.5-2.3-6.9
			c-0.1-0.4,0.1-0.9,0.5-1.1c0.5-0.2,0.9,0,1.1,0.4C23.7-361.3,24.9-359.1,25.2-356.7z"/>
	</g>
	<g>
		<path d="M64-330.6c-0.1-1.1-0.5-2.2-1.1-3.3c-0.7-1.1-1.6-2.1-2.8-2.9c-1.2-0.9-2.5-1.6-4.1-2.1c-1.6-0.5-3.3-0.8-5.2-0.8
			c-1.9,0-3.7,0.2-5.3,0.6c-1.6,0.4-3,1-4.1,1.7c-1.2,0.7-2.1,1.6-2.8,2.7c-0.7,1-1.1,2.2-1.2,3.4c-0.1,1.2,0.1,2.4,0.5,3.6
			c0.5,1.1,1.2,2.2,2.3,3.1c1.1,0.9,2.4,1.7,4,2.4c1.6,0.7,3.5,1.1,5.6,1.4l3.3,0.5c5.4,0.8,9.4,2.3,12.1,4.7c2.7,2.4,4,5.3,4,8.7
			c0,1.9-0.5,3.7-1.4,5.4c-1,1.7-2.3,3.1-3.9,4.3c-1.7,1.2-3.6,2.2-5.8,2.8c-2.2,0.7-4.5,1-7,1c-2.5,0-4.9-0.3-7.1-0.9
			c-2.3-0.6-4.2-1.5-5.9-2.7c-1.7-1.2-3.1-2.6-4-4.4c-1-1.7-1.4-3.7-1.3-5.9h3.4c-0.1,1.9,0.3,3.5,1.2,4.9c0.9,1.4,2,2.5,3.4,3.4
			s3,1.6,4.8,2c1.8,0.4,3.7,0.6,5.6,0.6c2.1,0,4.1-0.3,5.9-0.8c1.8-0.5,3.3-1.3,4.7-2.2c1.3-0.9,2.3-2,3.1-3.2
			c0.7-1.2,1.1-2.5,1.1-3.8c0-1.3-0.2-2.5-0.5-3.7c-0.4-1.2-1-2.2-2-3.2c-1-0.9-2.3-1.8-3.9-2.5c-1.6-0.7-3.8-1.3-6.3-1.7l-3.2-0.5
			c-5.7-0.8-9.8-2.4-12.4-4.7c-2.6-2.3-3.8-5.2-3.6-8.7c0.1-1.7,0.6-3.2,1.5-4.6c0.9-1.4,2.1-2.6,3.6-3.6c1.5-1,3.2-1.8,5.2-2.3
			c2-0.5,4.2-0.8,6.5-0.8c2.4,0,4.6,0.3,6.6,1c2,0.6,3.7,1.5,5.2,2.6c1.4,1.1,2.6,2.4,3.4,3.8c0.8,1.5,1.3,3,1.4,4.7H64z"/>
		<path d="M84.3-293.8c-1.5,0-2.9-0.2-4.2-0.6c-1.3-0.4-2.4-1.1-3.3-2c-0.9-0.9-1.7-2-2.2-3.4c-0.5-1.4-0.8-3.1-0.8-5V-330h3.3v25.7
			c0,2.5,0.7,4.4,2,5.7c1.4,1.3,3.1,1.9,5.2,1.9c2.7,0,5.4-0.4,7.8-1.3c2.5-0.9,4.8-1.9,6.9-3v-29h3.3v35.6H99v-3.4
			c-1.1,0.5-2.2,1-3.4,1.4c-1.2,0.5-2.4,0.9-3.6,1.3c-1.3,0.4-2.5,0.7-3.8,0.9C86.9-293.9,85.6-293.8,84.3-293.8z"/>
		<path d="M126-330.1c1.5,0,2.9,0.2,4.2,0.6c1.3,0.4,2.4,1.1,3.3,1.9c0.9,0.9,1.7,2,2.2,3.4c0.5,1.4,0.8,3.1,0.8,5v24.7h-3.3v-25.3
			c0-2.5-0.7-4.4-2-5.7c-1.4-1.3-3.1-1.9-5.2-1.9c-2.7,0-5.4,0.4-7.8,1.3c-2.5,0.9-4.8,1.9-6.9,3v28.5H108V-330h3.3v3.9
			c1.1-0.5,2.2-1,3.4-1.4c1.2-0.5,2.4-0.9,3.7-1.3c1.3-0.4,2.5-0.7,3.8-0.9C123.4-329.9,124.7-330.1,126-330.1z"/>
		<path d="M143.5-303.8c0,2.3,0.7,4.1,2.2,5.4c1.4,1.2,3.3,1.9,5.6,1.9c2.3,0,4.2-0.6,5.6-1.9c1.4-1.2,2.2-3,2.2-5.4v-38.3h3.3v38.3
			c0,1.4-0.3,2.8-0.8,4c-0.5,1.2-1.3,2.3-2.2,3.2c-1,0.9-2.1,1.6-3.5,2.2c-1.4,0.5-2.9,0.8-4.6,0.8c-1.7,0-3.2-0.3-4.6-0.8
			c-1.4-0.5-2.5-1.3-3.5-2.2c-1-0.9-1.7-2-2.2-3.2c-0.5-1.2-0.8-2.5-0.8-4H143.5z"/>
		<path d="M178.8-293.8c-1.5,0-2.9-0.2-4.2-0.6c-1.3-0.4-2.4-1.1-3.3-2c-0.9-0.9-1.7-2-2.2-3.4c-0.5-1.4-0.8-3.1-0.8-5V-330h3.3
			v25.7c0,2.5,0.7,4.4,2,5.7c1.4,1.3,3.1,1.9,5.2,1.9c2.7,0,5.4-0.4,7.8-1.3c2.5-0.9,4.8-1.9,6.9-3v-29h3.3v35.6h-3.3v-3.4
			c-1.1,0.5-2.2,1-3.4,1.4c-1.2,0.5-2.4,0.9-3.6,1.3c-1.3,0.4-2.5,0.7-3.8,0.9C181.4-293.9,180.1-293.8,178.8-293.8z"/>
		<path d="M234.4-294.3V-317h-28.1v22.7H203v-47.8h3.3v22.2h28.1v-22.2h3.3v47.8H234.4z"/>
		<path d="M256.3-295.4L241.9-330h3.5l12.7,30.7l14.8-30.7h3.5l-23.8,49.4h-3.4L256.3-295.4z"/>
		<path d="M293.7-296.6c1.9,0,3.6-0.2,5-0.7c1.5-0.5,2.7-1.1,3.8-1.9c1-0.8,1.8-1.7,2.4-2.7s0.8-2.1,0.8-3.2v-0.6h3.3v1.2
			c0,1.4-0.3,2.7-1,4s-1.7,2.5-3,3.5c-1.3,1-2.9,1.9-4.8,2.5c-1.9,0.6-4,0.9-6.4,0.9c-2.5,0-4.8-0.4-6.7-1.2c-2-0.8-3.6-1.8-5-3.2
			c-1.4-1.3-2.4-2.9-3.1-4.7c-0.7-1.8-1-3.7-1-5.8v-7.4c0-2.1,0.3-4,1-5.8c0.7-1.8,1.7-3.4,3.1-4.7c1.4-1.3,3-2.4,5-3.2
			c2-0.8,4.2-1.2,6.7-1.2c2.5,0,4.8,0.4,6.7,1.2s3.6,1.8,5,3.2c1.4,1.3,2.4,2.9,3.1,4.7c0.7,1.8,1,3.7,1,5.8v4.8h-28.4v2
			c0,1.8,0.3,3.5,0.8,5c0.5,1.5,1.4,2.9,2.4,3.9s2.4,1.9,3.9,2.6C289.8-296.9,291.6-296.6,293.7-296.6z M306.2-315.4
			c0-1.8-0.3-3.5-0.8-5c-0.5-1.5-1.4-2.9-2.4-3.9c-1.1-1.1-2.4-1.9-3.9-2.6c-1.6-0.6-3.4-0.9-5.4-0.9s-3.8,0.3-5.4,0.9
			c-1.6,0.6-2.9,1.5-3.9,2.6c-1.1,1.1-1.9,2.4-2.4,3.9c-0.5,1.5-0.8,3.2-0.8,5v1.5h25.2V-315.4z"/>
		<path d="M330.1-330.7c2.6,0,4.9,0.4,6.9,1.2s3.7,1.8,5,3.2c1.4,1.3,2.4,2.9,3.1,4.7c0.7,1.8,1.1,3.7,1.1,5.8v7.4
			c0,2.1-0.4,4-1.1,5.8c-0.7,1.8-1.8,3.4-3.1,4.7c-1.4,1.3-3.1,2.4-5,3.2c-2,0.8-4.3,1.2-6.9,1.2c-2.6,0-4.9-0.4-6.9-1.2
			c-2-0.8-3.7-1.8-5-3.2c-1.4-1.3-2.4-2.9-3.1-4.7c-0.7-1.8-1.1-3.7-1.1-5.8v-7.4c0-2.1,0.4-4,1.1-5.8c0.7-1.8,1.8-3.4,3.1-4.7
			c1.4-1.3,3.1-2.4,5-3.2C325.2-330.4,327.5-330.7,330.1-330.7z M317.3-309c0,1.8,0.3,3.5,0.8,5c0.6,1.5,1.4,2.9,2.5,3.9
			s2.4,1.9,4,2.6c1.6,0.6,3.4,0.9,5.6,0.9c2.1,0,3.9-0.3,5.5-0.9c1.6-0.6,3-1.5,4-2.6s1.9-2.4,2.5-3.9c0.6-1.5,0.8-3.2,0.8-5v-6.3
			c0-1.8-0.3-3.5-0.8-5c-0.6-1.5-1.4-2.9-2.5-3.9c-1.1-1.1-2.4-1.9-4-2.6c-1.6-0.6-3.5-0.9-5.5-0.9c-2.1,0-4,0.3-5.6,0.9
			c-1.6,0.6-2.9,1.5-4,2.6c-1.1,1.1-1.9,2.4-2.5,3.9c-0.6,1.5-0.8,3.2-0.8,5V-309z M330.1-306.5c-0.1-2.2-0.6-3.7-1.5-4.6
			c-0.9-0.8-2.2-1.3-4.1-1.4c1.8-0.1,3.2-0.5,4.1-1.4c0.9-0.8,1.4-2.3,1.5-4.6c0.1,2.2,0.6,3.7,1.4,4.6c0.8,0.8,2.2,1.3,4.1,1.4
			c-1.9,0.1-3.2,0.5-4.1,1.4C330.7-310.2,330.2-308.7,330.1-306.5z"/>
		<path d="M369.4-330.1c1.5,0,2.9,0.2,4.2,0.6c1.3,0.4,2.4,1.1,3.3,1.9c0.9,0.9,1.7,2,2.2,3.4c0.5,1.4,0.8,3.1,0.8,5v24.7h-3.3
			v-25.3c0-2.5-0.7-4.4-2-5.7c-1.4-1.3-3.1-1.9-5.2-1.9c-2.7,0-5.4,0.4-7.8,1.3c-2.5,0.9-4.8,1.9-6.9,3v28.5h-3.3V-330h3.3v3.9
			c1.1-0.5,2.2-1,3.4-1.4c1.2-0.5,2.4-0.9,3.7-1.3c1.3-0.4,2.5-0.7,3.8-0.9C366.8-329.9,368.1-330.1,369.4-330.1z"/>
	</g>
</g>
<g>
	<g>
		<path class="st6" d="M58.3-219.5c-0.1,9-3.5,13.5-12.1,16.2c-5.1,1.6-10.4,1.8-15.6,0.8c-5.7-1.1-10-4.2-12.4-9.6
			c-2.6-6.1-3.5-12.4-1.6-18.9c1.7-5.9,5.8-9.4,11.7-10.8c5.7-1.3,11.4-1.4,16.9,1C54.3-236.7,58.4-229.4,58.3-219.5z"/>
		<path class="st3" d="M73.3-233.4c0.2,1.3-0.5,2-1.7,2.4c-2.2,0.8-4.4,1.7-6.6,2.6c-0.7,0.3-1.8,1-2-0.4c-0.2-1.2-1.6-2.7,0.3-3.6
			c2.5-1.1,5.2-2.1,7.8-3C73-236.1,73.2-234.7,73.3-233.4z"/>
		<path class="st3" d="M9.4-218.6c0.1,1.3-0.4,1.9-1.4,2.3c-1.8,0.8-3.6,1.5-5.4,2.3c-0.7,0.3-1.8,0.9-1.9-0.1
			c-0.1-1.2-1.6-2.7,0.1-3.6c2.1-1.2,4.4-2.1,6.7-2.9C9.4-221.3,9.1-219.4,9.4-218.6z"/>
		<path class="st2" d="M14-235.6c-0.1,0.8,0,1.6-0.9,1.7c-2.3,0.4-6.8-3.4-7-5.8c-0.1-1.2,0.3-1.7,1.4-1.2c1.9,0.8,3.7,1.8,5.5,2.7
			C14.1-237.6,13.6-236.3,14-235.6z"/>
		<path class="st2" d="M58.9-246.8c0.2,1-0.3,1.7-0.9,2.3c-0.8,0.8-1.6,1.7-2.5,2.5c-0.8,0.6-1.7,2.4-2.4,1.4
			c-0.8-1-1.6-2.9-0.2-4.4c1-1,2.1-2,3.1-2.9c0.6-0.5,1.1-1.5,2.1-1.2C59.1-248.8,58.6-247.5,58.9-246.8z"/>
		<path class="st4" d="M41.4-254.4c-0.5,2.3-1,4.8-1.5,7.4c-0.1,0.4-0.2,0.9-0.7,0.9c-0.7,0.1-0.7-0.5-0.8-1
			c-1.1-3.4,0.3-6.5,0.8-9.7c0.1-0.5,0.4-1,1-1c0.6,0,0.8,0.6,0.9,1.1C41.2-256.1,41.2-255.4,41.4-254.4z"/>
		<path class="st7" d="M70.4-208.2c0,2-0.7,2.6-2.3,1.7c-1.9-1-4-1.8-4.1-4.5c-0.1-1.5,0.2-2.3,1.7-1.5
			C67.6-211.4,70.5-211.2,70.4-208.2z"/>
		<path class="st2" d="M20.3-202.3c0,1.1-3.3,4.9-4.2,5.1c-0.4,0.1-0.6-0.1-0.8-0.4c-1.4-2.4,0.5-6.4,3.4-6.8
			C20.4-204.6,20.1-203.1,20.3-202.3z"/>
		<path class="st4" d="M55.9-192.7c0.1,1.3,0,2-0.6,2.2c-0.9,0.3-1.1-0.5-1.4-1.2c-1.1-2.7-2.3-5.5-2.5-8.5c0-0.5-0.3-1,0.3-1.3
			c0.6-0.3,1,0.1,1.2,0.6C54.2-198,55.5-195.2,55.9-192.7z"/>
		<path class="st4" d="M35-193.2c0.3-1.5,0.7-3.3,1-5c0.1-0.5,0.4-1,1-0.9c0.5,0,0.7,0.5,0.8,0.9c0.7,2.9-0.1,5.7-1,8.4
			c-0.3,0.8-1.1,0.8-1.4-0.1C35.3-191,35.2-192,35-193.2z"/>
		<path class="st4" d="M25.2-245.4c0,0.7,0,1.4-0.7,1.6c-0.6,0.2-0.9-0.3-1.2-0.7c-1.4-2.1-1.9-4.5-2.3-6.9
			c-0.1-0.4,0.1-0.9,0.5-1.1c0.5-0.2,0.9,0,1.1,0.4C23.7-250,24.9-247.8,25.2-245.4z"/>
	</g>
	<g>
		<path d="M73.4-214.4h-6.7l3.8,9.9H58.7L53.9-217l-4.8,12.5H37.3l10.2-26.3h13l2.8,7.3h10.2v-7.3h11.3v33H73.4V-214.4z M49.1-201.5
			v9.8l14.1-0.1c3.7,0,7.4-0.2,11.2-0.5c3.8-0.3,7.3-0.7,10.5-1.2v10.4H37.9v-18.4H49.1z"/>
		<path d="M90.3-230.8h46.8v8.7H126l11.1,15.6h-13l-10.4-15.7l-10.4,15.7h-13l11.1-15.6H90.3V-230.8z M90.3-204.1h46.8v8.7h-17.5
			v12.2h-11.8v-12.2H90.3V-204.1z"/>
		<path d="M141.9-230.2h9.7v-3.1h11.8v3.1h9.7v7.6h-31.2V-230.2z M173.1-210.7c0,1.6-0.2,3-0.7,4.3c-0.5,1.3-1.1,2.4-2,3.3
			c-0.8,0.9-1.9,1.6-3,2.1c-1.2,0.5-2.5,0.8-3.9,0.8h-12.1c-1.4,0-2.7-0.3-3.9-0.8c-1.2-0.5-2.2-1.2-3-2.1c-0.8-0.9-1.5-2-2-3.3
			c-0.5-1.3-0.7-2.7-0.7-4.3c0-1.6,0.2-3,0.7-4.3c0.5-1.3,1.1-2.4,2-3.3c0.8-0.9,1.9-1.6,3-2.1s2.5-0.8,3.9-0.8h12.1
			c1.4,0,2.7,0.3,3.9,0.8s2.2,1.2,3,2.1c0.8,0.9,1.5,2,2,3.3C172.9-213.7,173.1-212.2,173.1-210.7z M154-198.4v6.9l14.1-0.1
			c3.7,0,7.4-0.2,11.2-0.5c3.8-0.3,7.3-0.7,10.5-1.2v10.2h-47.1v-15.3H154z M157.5-220.3c0,1.1-0.2,2.3-0.6,3.4
			c-0.4,1.1-1,2.1-1.9,3c-0.9,0.9-2.1,1.7-3.7,2.3c-1.6,0.6-3.5,0.9-5.9,1c2.5,0.1,4.5,0.4,6.1,1c1.6,0.6,2.8,1.4,3.7,2.3
			c0.9,0.9,1.5,2,1.9,3.2c0.3,1.2,0.5,2.3,0.5,3.5c0-1.2,0.2-2.3,0.5-3.5c0.3-1.2,0.9-2.2,1.8-3.2c0.9-0.9,2.1-1.7,3.7-2.3
			c1.6-0.6,3.6-1,6.1-1c-2.4,0-4.4-0.4-5.9-1c-1.6-0.6-2.8-1.4-3.7-2.3c-0.9-0.9-1.5-1.9-1.9-3C157.7-218.1,157.5-219.2,157.5-220.3
			z M174.1-213.4h4.1v-4h-4.1v-8.5h4.1v-4.9h11.3v34.5h-11.3v-8.6h-4.1V-213.4z"/>
	</g>
</g>
<g>
	<path class="st6" d="M616.8-451.7c-0.1,9-3.5,13.5-12.1,16.2c-5.1,1.6-10.4,1.8-15.6,0.8c-5.7-1.1-10-4.2-12.4-9.6
		c-2.6-6.1-3.5-12.4-1.6-18.9c1.7-5.9,5.8-9.4,11.7-10.8c5.7-1.3,11.4-1.4,16.9,1C612.9-468.8,617-461.5,616.8-451.7z"/>
	<path class="st3" d="M631.9-465.5c0.2,1.3-0.5,2-1.7,2.4c-2.2,0.8-4.4,1.7-6.6,2.6c-0.7,0.3-1.8,1-2-0.4c-0.2-1.2-1.6-2.7,0.3-3.6
		c2.5-1.1,5.2-2.1,7.8-3C631.5-468.2,631.7-466.9,631.9-465.5z"/>
	<path class="st3" d="M567.9-450.7c0.1,1.3-0.4,1.9-1.4,2.3c-1.8,0.8-3.6,1.5-5.4,2.3c-0.7,0.3-1.8,0.9-1.9-0.1
		c-0.1-1.2-1.6-2.7,0.1-3.6c2.1-1.2,4.4-2.1,6.7-2.9C568-453.4,567.6-451.6,567.9-450.7z"/>
	<path class="st2" d="M572.5-467.7c-0.1,0.8,0,1.6-0.9,1.7c-2.3,0.4-6.8-3.4-7-5.8c-0.1-1.2,0.3-1.7,1.4-1.2
		c1.9,0.8,3.7,1.8,5.5,2.7C572.7-469.7,572.1-468.5,572.5-467.7z"/>
	<path class="st2" d="M617.4-479c0.2,1-0.3,1.7-0.9,2.3c-0.8,0.8-1.6,1.7-2.5,2.5c-0.8,0.6-1.7,2.4-2.4,1.4c-0.8-1-1.6-2.9-0.2-4.4
		c1-1,2.1-2,3.1-2.9c0.6-0.5,1.1-1.5,2.1-1.2C617.6-480.9,617.1-479.7,617.4-479z"/>
	<path class="st4" d="M599.9-486.5c-0.5,2.3-1,4.8-1.5,7.4c-0.1,0.4-0.2,0.9-0.7,0.9c-0.7,0.1-0.7-0.5-0.8-1
		c-1.1-3.4,0.3-6.5,0.8-9.7c0.1-0.5,0.4-1,1-1c0.6,0,0.8,0.6,0.9,1.1C599.7-488.2,599.8-487.5,599.9-486.5z"/>
	<path class="st7" d="M628.9-440.4c0,2-0.7,2.6-2.3,1.7c-1.9-1-4-1.8-4.1-4.5c-0.1-1.5,0.2-2.3,1.7-1.5
		C626.1-443.5,629-443.3,628.9-440.4z"/>
	<path class="st2" d="M578.8-434.4c0,1.1-3.3,4.9-4.2,5.1c-0.4,0.1-0.6-0.1-0.8-0.4c-1.4-2.4,0.5-6.4,3.4-6.8
		C579-436.7,578.6-435.3,578.8-434.4z"/>
	<path class="st4" d="M614.5-424.8c0.1,1.3,0,2-0.6,2.2c-0.9,0.3-1.1-0.5-1.4-1.2c-1.1-2.7-2.3-5.5-2.5-8.5c0-0.5-0.3-1,0.3-1.3
		c0.6-0.3,1,0.1,1.2,0.6C612.7-430.2,614-427.3,614.5-424.8z"/>
	<path class="st4" d="M593.6-425.4c0.3-1.5,0.7-3.3,1-5c0.1-0.5,0.4-1,1-0.9c0.5,0,0.7,0.5,0.8,0.9c0.7,2.9-0.1,5.7-1,8.4
		c-0.3,0.8-1.1,0.8-1.4-0.1C593.8-423.1,593.8-424.1,593.6-425.4z"/>
	<path class="st4" d="M583.8-477.6c0,0.7,0,1.4-0.7,1.6c-0.6,0.2-0.9-0.3-1.2-0.7c-1.4-2.1-1.9-4.5-2.3-6.9
		c-0.1-0.4,0.1-0.9,0.5-1.1c0.5-0.2,0.9,0,1.1,0.4C582.3-482.1,583.5-480,583.8-477.6z"/>
</g>
<text transform="matrix(1 0 0 1 589.5316 -421.3878)" style="font-family:'PyeongChangPeace-Light'; font-size:56.391px;">SunJuHyeon</text>
<g>
	<path class="st6" d="M616.8-340.4c-0.1,9-3.5,13.5-12.1,16.2c-5.1,1.6-10.4,1.8-15.6,0.8c-5.7-1.1-10-4.2-12.4-9.6
		c-2.6-6.1-3.5-12.4-1.6-18.9c1.7-5.9,5.8-9.4,11.7-10.8c5.7-1.3,11.4-1.4,16.9,1C612.9-357.5,617-350.3,616.8-340.4z"/>
	<path class="st3" d="M631.9-354.2c0.2,1.3-0.5,2-1.7,2.4c-2.2,0.8-4.4,1.7-6.6,2.6c-0.7,0.3-1.8,1-2-0.4c-0.2-1.2-1.6-2.7,0.3-3.6
		c2.5-1.1,5.2-2.1,7.8-3C631.5-356.9,631.7-355.6,631.9-354.2z"/>
	<path class="st3" d="M567.9-339.4c0.1,1.3-0.4,1.9-1.4,2.3c-1.8,0.8-3.6,1.5-5.4,2.3c-0.7,0.3-1.8,0.9-1.9-0.1
		c-0.1-1.2-1.6-2.7,0.1-3.6c2.1-1.2,4.4-2.1,6.7-2.9C568-342.1,567.6-340.3,567.9-339.4z"/>
	<path class="st2" d="M572.5-356.4c-0.1,0.8,0,1.6-0.9,1.7c-2.3,0.4-6.8-3.4-7-5.8c-0.1-1.2,0.3-1.7,1.4-1.2
		c1.9,0.8,3.7,1.8,5.5,2.7C572.7-358.4,572.1-357.2,572.5-356.4z"/>
	<path class="st2" d="M617.4-367.7c0.2,1-0.3,1.7-0.9,2.3c-0.8,0.8-1.6,1.7-2.5,2.5c-0.8,0.6-1.7,2.4-2.4,1.4
		c-0.8-1-1.6-2.9-0.2-4.4c1-1,2.1-2,3.1-2.9c0.6-0.5,1.1-1.5,2.1-1.2C617.6-369.6,617.1-368.4,617.4-367.7z"/>
	<path class="st4" d="M599.9-375.2c-0.5,2.3-1,4.8-1.5,7.4c-0.1,0.4-0.2,0.9-0.7,0.9c-0.7,0.1-0.7-0.5-0.8-1
		c-1.1-3.4,0.3-6.5,0.8-9.7c0.1-0.5,0.4-1,1-1c0.6,0,0.8,0.6,0.9,1.1C599.7-376.9,599.8-376.2,599.9-375.2z"/>
	<path class="st7" d="M628.9-329.1c0,2-0.7,2.6-2.3,1.7c-1.9-1-4-1.8-4.1-4.5c-0.1-1.5,0.2-2.3,1.7-1.5
		C626.1-332.3,629-332,628.9-329.1z"/>
	<path class="st2" d="M578.8-323.1c0,1.1-3.3,4.9-4.2,5.1c-0.4,0.1-0.6-0.1-0.8-0.4c-1.4-2.4,0.5-6.4,3.4-6.8
		C579-325.5,578.6-324,578.8-323.1z"/>
	<path class="st4" d="M614.5-313.5c0.1,1.3,0,2-0.6,2.2c-0.9,0.3-1.1-0.5-1.4-1.2c-1.1-2.7-2.3-5.5-2.5-8.5c0-0.5-0.3-1,0.3-1.3
		c0.6-0.3,1,0.1,1.2,0.6C612.7-318.9,614-316,614.5-313.5z"/>
	<path class="st4" d="M593.6-314.1c0.3-1.5,0.7-3.3,1-5c0.1-0.5,0.4-1,1-0.9c0.5,0,0.7,0.5,0.8,0.9c0.7,2.9-0.1,5.7-1,8.4
		c-0.3,0.8-1.1,0.8-1.4-0.1C593.8-311.8,593.8-312.9,593.6-314.1z"/>
	<path class="st4" d="M583.8-366.3c0,0.7,0,1.4-0.7,1.6c-0.6,0.2-0.9-0.3-1.2-0.7c-1.4-2.1-1.9-4.5-2.3-6.9
		c-0.1-0.4,0.1-0.9,0.5-1.1c0.5-0.2,0.9,0,1.1,0.4C582.3-370.8,583.5-368.7,583.8-366.3z"/>
</g>
<text transform="matrix(1 0 0 1 593.5779 -310.1027)" style="font-family:'PyeongChangPeace-Bold'; font-size:56.391px;">선주현</text>
<g>
	<path class="st8" d="M14.6,37.2c-0.8,0.8-1.8,1.6-3,2.3l-0.2,0c-0.1,0-0.1,0-0.2-0.1l-0.7-1c0,0-0.1-0.1-0.1-0.2
		c0-0.1,0-0.1,0.1-0.2c3.2-1.9,4.9-4.2,4.9-7v-1.8c0-0.1,0.1-0.2,0.2-0.2H17c0.1,0,0.2,0.1,0.2,0.2v1.8c0,1.4,0.4,2.6,1.2,3.6
		c0.8,1,2,2,3.4,2.8c0.1,0.1,0.1,0.2,0.1,0.4l-0.7,1c-0.1,0.1-0.2,0.1-0.4,0.1c-1.1-0.6-2-1.3-2.8-2.1c-0.8-0.8-1.3-1.6-1.7-2.4
		C16,35.5,15.4,36.4,14.6,37.2z M27,45.9c0.2,0,0.2,0.1,0.2,0.2v1.1c0,0.1-0.1,0.2-0.2,0.2H14.6c-0.1,0-0.2-0.1-0.2-0.2V41
		c0-0.1,0-0.1,0-0.2s0.1-0.1,0.2-0.1h1.3c0.1,0,0.2,0.1,0.2,0.2v4.9H27z M20.8,33.9c-0.2,0-0.2-0.1-0.2-0.2v-1.1
		c0-0.2,0.1-0.2,0.2-0.2h4.1v-3.9c0-0.1,0.1-0.2,0.2-0.2h1.3c0.2,0,0.2,0.1,0.2,0.2v13.9c0,0.1-0.1,0.2-0.2,0.2h-1.3
		c-0.1,0-0.1,0-0.2-0.1c0,0-0.1-0.1-0.1-0.1v-8.4H20.8z"/>
	<path class="st8" d="M48.2,39.5c0.1,0,0.2,0.1,0.2,0.2v1.1c0,0.2-0.1,0.2-0.2,0.2H40v6.3c0,0.2-0.1,0.2-0.2,0.2h-1.3
		c-0.2,0-0.2-0.1-0.2-0.2v-6.3H30c-0.1,0-0.2-0.1-0.2-0.2v-1.1c0-0.1,0.1-0.2,0.2-0.2H48.2z M31.3,36.2L31.3,36.2
		c0-0.2,0-0.3,0.2-0.3c4.5-1.1,6.7-2.7,6.7-4.8v-0.5h-5.6c-0.1,0-0.2-0.1-0.2-0.2v-1.1c0-0.2,0.1-0.2,0.2-0.2h13
		c0.1,0,0.2,0.1,0.2,0.2v1.1c0,0.1-0.1,0.2-0.2,0.2H40v0.5c0,1.1,0.6,2.1,1.9,2.9c1.2,0.8,2.8,1.4,4.8,1.9c0.2,0,0.2,0.1,0.2,0.3
		l-0.4,1.1c-0.1,0.1-0.2,0.2-0.3,0.2c-1.7-0.4-3.2-0.9-4.4-1.6c-1.3-0.7-2.1-1.4-2.6-2.3c-0.5,0.9-1.3,1.6-2.6,2.3
		c-1.2,0.6-2.8,1.2-4.6,1.6h-0.1c-0.1,0-0.2-0.1-0.2-0.2L31.3,36.2z"/>
	<path class="st8" d="M61.9,32c0,0.1-0.1,0.2-0.2,0.2H50.2c-0.2,0-0.2-0.1-0.2-0.2v-1.1c0-0.2,0.1-0.2,0.2-0.2h4.9v-2.3
		c0-0.2,0.1-0.2,0.2-0.2h1.3c0.1,0,0.2,0.1,0.2,0.2v2.3h4.8c0.1,0,0.2,0.1,0.2,0.2V32z M59.4,39.9c-0.9,0.7-2.1,1-3.6,1
		c-1.5,0-2.7-0.3-3.5-1c-0.9-0.7-1.3-1.6-1.3-2.8c0-1.1,0.4-2.1,1.3-2.7c0.9-0.7,2-1,3.5-1c1.5,0,2.7,0.3,3.6,1
		c0.9,0.7,1.3,1.6,1.3,2.7C60.7,38.3,60.3,39.2,59.4,39.9z M53.6,38.8c0.5,0.4,1.3,0.7,2.3,0.7c1,0,1.8-0.2,2.3-0.7
		c0.5-0.4,0.8-1,0.8-1.7s-0.3-1.2-0.8-1.7c-0.5-0.4-1.3-0.6-2.3-0.6c-1,0-1.8,0.2-2.3,0.6c-0.5,0.4-0.8,1-0.8,1.7S53,38.4,53.6,38.8
		z M66.6,45.9c0.2,0,0.2,0.1,0.2,0.2v1.1c0,0.1-0.1,0.2-0.2,0.2H54c-0.2,0-0.2-0.1-0.2-0.2v-4.9c0-0.1,0.1-0.2,0.2-0.2h1.3
		c0.2,0,0.2,0.1,0.2,0.2v3.5H66.6z M64.5,33.9v-5.4c0-0.1,0.1-0.2,0.2-0.2H66c0.2,0,0.2,0.1,0.2,0.2v14c0,0.1-0.1,0.2-0.2,0.2h-1.3
		c-0.2,0-0.2-0.1-0.2-0.2v-2.8h-2.9c-0.1,0-0.2-0.1-0.2-0.2l0-1.1c0-0.1,0.1-0.2,0.2-0.2h2.8v-2.6h-2.8c-0.1,0-0.2-0.1-0.2-0.2v-1.1
		c0-0.2,0.1-0.2,0.2-0.2H64.5z"/>
	<path class="st8" d="M92.8,44c0.1,0,0.2,0.1,0.2,0.2v1.1c0,0.1-0.1,0.2-0.2,0.2H74.6c-0.1,0-0.2-0.1-0.2-0.2v-1.1
		c0-0.2,0.1-0.2,0.2-0.2h8.2v-4.3h-5.9c-0.2,0-0.2-0.1-0.2-0.2v-1.1c0-0.2,0.1-0.2,0.2-0.2h2.6v-6.7H77c-0.2,0-0.2-0.1-0.2-0.2v-1.1
		c0-0.1,0.1-0.2,0.2-0.2h13.4c0.2,0,0.2,0.1,0.2,0.2v1.1c0,0.2-0.1,0.2-0.2,0.2h-2.5v6.7h2.6c0.1,0,0.2,0.1,0.2,0.2v1.1
		c0,0.1-0.1,0.2-0.2,0.2h-5.9V44H92.8z M86.2,31.5h-5v6.7h5V31.5z"/>
	<path class="st8" d="M112.6,44c0.1,0,0.2,0.1,0.2,0.2v1.1c0,0.1-0.1,0.2-0.2,0.2H94.4c-0.1,0-0.2-0.1-0.2-0.2v-1.1
		c0-0.2,0.1-0.2,0.2-0.2H112.6z M97.3,40.3c-0.2,0-0.2-0.1-0.2-0.2V30c0-0.1,0.1-0.2,0.2-0.2h12.3c0.1,0,0.2,0.1,0.2,0.2v1.1
		c0,0.2-0.1,0.2-0.2,0.2H98.8v2.9h10.6c0.2,0,0.2,0.1,0.2,0.2v1c0,0.2-0.1,0.2-0.2,0.2H98.8v3H110c0.2,0,0.2,0.1,0.2,0.2v1.1
		c0,0.1-0.1,0.2-0.2,0.2H97.3z"/>
	<path class="st8" d="M132.4,36.9c0.1,0,0.2,0.1,0.2,0.2v1c0,0.2-0.1,0.2-0.2,0.2h-18.2c-0.1,0-0.2-0.1-0.2-0.2v-1
		c0-0.1,0.1-0.2,0.2-0.2h8.2V35h-5.7c-0.2,0-0.2-0.1-0.2-0.2v-1c0-0.1,0.1-0.2,0.2-0.2h2.6V30h-2.5c-0.1,0-0.2-0.1-0.2-0.2v-1
		c0-0.1,0.1-0.2,0.2-0.2h13c0.2,0,0.2,0.1,0.2,0.2v1c0,0.1-0.1,0.2-0.2,0.2h-2.5v3.5h2.6c0.2,0,0.2,0.1,0.2,0.2v1
		c0,0.1-0.1,0.2-0.2,0.2h-5.7v1.9H132.4z M130.2,46.4c0.1,0,0.2,0.1,0.2,0.2v1c0,0.1-0.1,0.2-0.2,0.2h-13.1c-0.1,0-0.2-0.1-0.2-0.2
		v-4.2c0-0.2,0.1-0.2,0.2-0.2H128v-1.7h-11c-0.1,0-0.2-0.1-0.2-0.2v-0.9c0-0.2,0.1-0.2,0.2-0.2h12.5c0.1,0,0.2,0.1,0.2,0.2v4.1
		c0,0.1-0.1,0.2-0.2,0.2h-10.9v1.8H130.2z M125.6,30h-4.5v3.5h4.5V30z"/>
	<path class="st8" d="M135.4,43.1c-0.2,0-0.2-0.1-0.2-0.2V36c0-0.1,0-0.1,0.1-0.2s0.1-0.1,0.2-0.1h7.6v-4.2h-7.6
		c-0.2,0-0.2-0.1-0.2-0.2v-1.1c0-0.1,0.1-0.2,0.2-0.2h9.1c0.1,0,0.2,0.1,0.2,0.2V37c0,0.1-0.1,0.2-0.2,0.2h-7.5v4.3h2.5
		c1,0,2.1-0.1,3.3-0.2s2.2-0.3,3.2-0.5l0.1,0c0.1,0,0.2,0.1,0.2,0.2l0.2,1v0.1c0,0.1-0.1,0.1-0.2,0.2c-2.2,0.4-4.6,0.7-7.1,0.7
		H135.4z M149,47.7c-0.1,0-0.2-0.1-0.2-0.2v-19c0-0.1,0.1-0.2,0.2-0.2h1.3c0.2,0,0.2,0.1,0.2,0.2v19c0,0.2-0.1,0.2-0.2,0.2H149z"/>
	<path class="st8" d="M172,44c0.1,0,0.2,0.1,0.2,0.2v1.1c0,0.1-0.1,0.2-0.2,0.2h-18.2c-0.1,0-0.2-0.1-0.2-0.2v-1.1
		c0-0.2,0.1-0.2,0.2-0.2h8.2v-4.3c-1.7-0.1-3.2-0.6-4.3-1.5s-1.7-2.1-1.7-3.6c0-1.1,0.3-2,0.9-2.8c0.6-0.8,1.4-1.3,2.5-1.7
		c1-0.4,2.2-0.6,3.5-0.6c1.3,0,2.4,0.2,3.5,0.6c1,0.4,1.9,1,2.5,1.7c0.6,0.8,0.9,1.7,0.9,2.8c0,1.5-0.6,2.7-1.7,3.6
		c-1.1,0.9-2.5,1.4-4.3,1.5V44H172z M159.3,37.3c0.9,0.6,2.2,0.9,3.6,0.9s2.7-0.3,3.6-0.9c0.9-0.6,1.4-1.5,1.4-2.6s-0.5-2-1.4-2.6
		c-0.9-0.6-2.2-0.9-3.6-0.9s-2.7,0.3-3.6,0.9c-0.9,0.6-1.4,1.5-1.4,2.6S158.3,36.7,159.3,37.3z"/>
</g>
<g>
	<path class="st6" d="M48.7,120.5c0.1-2.2,0.8-4.2,1.9-6c1.1-1.7,2.6-3.2,4.4-4.4c1.7-1.2,3.8-2.1,6-2.7c2.2-0.6,4.7-0.9,7.3-0.9
		c1.1,0,2.1,0.1,3.2,0.2c-2.1-2.7-5-5-8.8-6.7c-5.5-2.5-11.2-2.4-16.9-1c-5.9,1.4-10,4.9-11.7,10.8c-1.9,6.5-1,12.8,1.6,18.9
		c2.3,5.4,6.7,8.5,12.4,9.6c5.2,1,10.5,0.8,15.6-0.8c0.8-0.3,1.6-0.5,2.3-0.8c-5.8-1-10-2.7-12.8-5.2
		C49.9,128.5,48.4,124.9,48.7,120.5z"/>
	<path class="st3" d="M25.1,120.2c-2.3,0.8-4.6,1.7-6.7,2.9c-1.7,0.9-0.2,2.5-0.1,3.6c0.1,1,1.3,0.4,1.9,0.1
		c1.8-0.7,3.6-1.5,5.4-2.3c1-0.4,1.5-1.1,1.4-2.3C26.6,121.4,27,119.6,25.1,120.2z"/>
	<path class="st2" d="M30.5,102.7c-1.8-0.9-3.6-1.9-5.5-2.7c-1.1-0.5-1.5,0-1.4,1.2c0.2,2.4,4.7,6.2,7,5.8c0.9-0.1,0.8-0.9,0.9-1.7
		C31.1,104.5,31.7,103.2,30.5,102.7z"/>
	<path class="st2" d="M73,98.8c0.9-0.7,1.7-1.6,2.5-2.5c0.6-0.6,1.1-1.3,0.9-2.3c-0.3-0.7,0.2-2-0.9-2.3c-0.9-0.3-1.4,0.7-2.1,1.2
		c-1.1,1-2.1,1.9-3.1,2.9c-1.5,1.5-0.6,3.4,0.2,4.4C71.3,101.2,72.2,99.4,73,98.8z"/>
	<path class="st4" d="M56.6,94.8c0.5,0,0.6-0.5,0.7-0.9c0.5-2.6,1.1-5.1,1.5-7.4c-0.1-1-0.2-1.7-0.3-2.3c-0.1-0.5-0.3-1-0.9-1.1
		c-0.6,0-0.9,0.5-1,1c-0.5,3.2-1.9,6.4-0.8,9.7C56,94.2,55.9,94.8,56.6,94.8z"/>
	<path class="st2" d="M36.2,136.5c-2.9,0.4-4.8,4.4-3.4,6.8c0.2,0.3,0.4,0.5,0.8,0.4c1-0.2,4.3-4,4.2-5.1
		C37.6,137.7,38,136.2,36.2,136.5z"/>
	<path class="st4" d="M40.9,96.3c0.3,0.4,0.6,0.9,1.2,0.7c0.7-0.2,0.7-0.9,0.7-1.6c-0.3-2.4-1.5-4.5-2.6-6.7
		c-0.2-0.4-0.6-0.6-1.1-0.4c-0.4,0.2-0.6,0.6-0.5,1.1C39,91.8,39.5,94.2,40.9,96.3z"/>
	<text transform="matrix(1 0 0 1 52.2723 150.1614)" style="font-family:'S-CoreDream-3Light'; font-size:51.7663px;">SunJuHyeon</text>
	<g>
		<path class="st8" d="M17.4,47.7c-4.9,0-7.5-2.8-7.5-6.3v-0.7h1.9v0.7c0,2.6,2.1,4.6,5.6,4.6c3.6,0,5.6-2,5.6-4.6
			c0-2.4-1.4-3.9-4.7-4.6l-2.9-0.6c-3.5-0.7-5.5-2.6-5.5-5.8c0-3.3,2.4-6,7-6s7.1,2.7,7.1,6v0.5h-1.9v-0.5c0-2.6-1.9-4.3-5.2-4.3
			c-3.3,0-5.2,1.7-5.2,4.3c0,2.3,1.4,3.6,4.2,4.2l2.9,0.6c4.1,0.8,6,2.9,6,6.2C24.9,45,22.3,47.7,17.4,47.7z"/>
		<path class="st8" d="M38.6,40.3V24.8h1.9v15.6c0,4.6-2.3,7.3-6.7,7.3c-4.4,0-6.7-2.7-6.7-7.3H29c0,3.6,1.6,5.7,4.8,5.7
			C36.9,46.1,38.6,44,38.6,40.3z"/>
		<path class="st8" d="M58.2,36.7H47v10.7h-1.9V24.8H47V35h11.3V24.8h1.9v22.5h-1.9V36.7z"/>
		<path class="st8" d="M75.1,38.6v8.8h-1.9V24.8h8.2c4.6,0,7,2.7,7,6.9c0,4.2-2.4,6.9-7,6.9H75.1z M81.3,36.9c3.5,0,5.3-2,5.3-5.2
			c0-3.2-1.8-5.2-5.3-5.2h-6.2v10.4H81.3z"/>
		<path class="st8" d="M97.7,47.7c-4.6,0-6.8-3.2-6.8-8.4c0-5.3,2.2-8.4,6.8-8.4s6.8,3.2,6.8,8.4C104.5,44.6,102.3,47.7,97.7,47.7z
			 M97.7,46.2c3.5,0,5-2.5,5-6.9c0-4.4-1.5-6.9-5-6.9c-3.5,0-5,2.5-5,6.9C92.7,43.7,94.2,46.2,97.7,46.2z"/>
		<path class="st8" d="M109.7,39.2v8.1H108V31.3h1.8v3.1c0.7-2.2,2.2-3.5,4.8-3.5c0.5,0,0.9,0,1.2,0.1l0,1.5c-0.3,0-0.7-0.1-1.2-0.1
			C111.6,32.5,109.7,34.7,109.7,39.2z"/>
		<path class="st8" d="M121.2,42.9c0,2.5,1.1,3.2,3.3,3.2h1.6v1.5c-0.6,0-1.3,0-1.8,0c-3.4,0-4.9-1-4.9-4.4V32.8H117v-1.5h2.4v-4.6
			h1.8v4.6h4.9v1.5h-4.9V42.9z"/>
		<path class="st8" d="M135.5,26.2c-2.5,0-3.1,0.7-3.1,3.1v2h4.6v1.5h-4.6v14.5h-1.8V32.8h-2.4v-1.5h2.4v-2.2c0-3.4,1.3-4.5,4.8-4.5
			c0.5,0,1.1,0,1.6,0.1v1.5H135.5z"/>
		<path class="st8" d="M145.4,47.7c-4.6,0-6.8-3.2-6.8-8.4c0-5.3,2.2-8.4,6.8-8.4s6.8,3.2,6.8,8.4C152.2,44.6,150,47.7,145.4,47.7z
			 M145.4,46.2c3.5,0,5-2.5,5-6.9c0-4.4-1.5-6.9-5-6.9c-3.5,0-5,2.5-5,6.9C140.4,43.7,141.9,46.2,145.4,46.2z"/>
		<path class="st8" d="M155.8,47.3V24.8h1.8v22.5H155.8z"/>
		<path class="st8" d="M162,27.8v-3h1.8v3H162z M162,47.3V31.3h1.8v16.1H162z"/>
		<path class="st8" d="M174.2,47.7c-4.6,0-6.8-3.2-6.8-8.4c0-5.3,2.2-8.4,6.8-8.4s6.8,3.2,6.8,8.4C181,44.6,178.8,47.7,174.2,47.7z
			 M174.2,46.2c3.5,0,5-2.5,5-6.9c0-4.4-1.5-6.9-5-6.9c-3.5,0-5,2.5-5,6.9C169.2,43.7,170.7,46.2,174.2,46.2z"/>
	</g>
</g>
</svg>
