<svg xmlns="http://www.w3.org/2000/svg" viewBox="0 0 347.15 62.15"><g id="레이어_2" data-name="레이어 2"><g id="레이어_1-2" data-name="레이어 1"><g id="Layer_2" data-name="Layer 2"><g id="Layer_1-2" data-name="Layer 1-2"><path d="M31.28,12.13A7.22,7.22,0,0,0,30.16,8.8a10.74,10.74,0,0,0-2.77-2.93,15.12,15.12,0,0,0-4.11-2.12,16.1,16.1,0,0,0-5.19-.82,21.69,21.69,0,0,0-5.27.6A14.06,14.06,0,0,0,8.67,5.22,9.17,9.17,0,0,0,5.88,7.87a7.09,7.09,0,0,0-1.21,3.41,7.43,7.43,0,0,0,.53,3.58A8.3,8.3,0,0,0,7.51,18a14.38,14.38,0,0,0,4,2.4,21.85,21.85,0,0,0,5.64,1.38l3.27.45q8.11,1.13,12.09,4.68a11.24,11.24,0,0,1,4,8.69,10.47,10.47,0,0,1-1.44,5.35,14,14,0,0,1-3.92,4.29,20.45,20.45,0,0,1-5.75,2.85,23.06,23.06,0,0,1-7,1,26.28,26.28,0,0,1-7.12-.89,19.1,19.1,0,0,1-5.95-2.71,13.08,13.08,0,0,1-4-4.37A10.63,10.63,0,0,1,0,35.19H3.42A8.37,8.37,0,0,0,4.58,40.1,10.87,10.87,0,0,0,8,43.54a15.5,15.5,0,0,0,4.85,2,24.21,24.21,0,0,0,5.56.65,20.18,20.18,0,0,0,5.88-.82,16.81,16.81,0,0,0,4.65-2.2A10.57,10.57,0,0,0,32,40a7.31,7.31,0,0,0,1.1-3.81,12.35,12.35,0,0,0-.53-3.67,7.65,7.65,0,0,0-2-3.15,12.69,12.69,0,0,0-3.9-2.48,26.43,26.43,0,0,0-6.34-1.7l-3.12-.45Q8.69,23.47,4.81,20a10.12,10.12,0,0,1-3.53-8.65A9.69,9.69,0,0,1,2.75,6.7,12.13,12.13,0,0,1,6.28,3.13,18.09,18.09,0,0,1,11.5.82,24.85,24.85,0,0,1,18,0a21.55,21.55,0,0,1,6.57,1A17.44,17.44,0,0,1,29.8,3.6a13.12,13.12,0,0,1,3.48,3.79,10.42,10.42,0,0,1,1.38,4.74Z"/><path d="M31.28,12.13A7.22,7.22,0,0,0,30.16,8.8a10.74,10.74,0,0,0-2.77-2.93,15.12,15.12,0,0,0-4.11-2.12,16.1,16.1,0,0,0-5.19-.82,21.69,21.69,0,0,0-5.27.6A14.06,14.06,0,0,0,8.67,5.22,9.17,9.17,0,0,0,5.88,7.87a7.09,7.09,0,0,0-1.21,3.41,7.43,7.43,0,0,0,.53,3.58A8.3,8.3,0,0,0,7.51,18a14.38,14.38,0,0,0,4,2.4,21.85,21.85,0,0,0,5.64,1.38l3.27.45q8.11,1.13,12.09,4.68a11.24,11.24,0,0,1,4,8.69,10.47,10.47,0,0,1-1.44,5.35,14,14,0,0,1-3.92,4.29,20.45,20.45,0,0,1-5.75,2.85,23.06,23.06,0,0,1-7,1,26.28,26.28,0,0,1-7.12-.89,19.1,19.1,0,0,1-5.95-2.71,13.08,13.08,0,0,1-4-4.37A10.63,10.63,0,0,1,0,35.19H3.42A8.37,8.37,0,0,0,4.58,40.1,10.87,10.87,0,0,0,8,43.54a15.5,15.5,0,0,0,4.85,2,24.21,24.21,0,0,0,5.56.65,20.18,20.18,0,0,0,5.88-.82,16.81,16.81,0,0,0,4.65-2.2A10.57,10.57,0,0,0,32,40a7.31,7.31,0,0,0,1.1-3.81,12.35,12.35,0,0,0-.53-3.67,7.65,7.65,0,0,0-2-3.15,12.69,12.69,0,0,0-3.9-2.48,26.43,26.43,0,0,0-6.34-1.7l-3.12-.45Q8.69,23.47,4.81,20a10.12,10.12,0,0,1-3.53-8.65A9.69,9.69,0,0,1,2.75,6.7,12.13,12.13,0,0,1,6.28,3.13,18.09,18.09,0,0,1,11.5.82,24.85,24.85,0,0,1,18,0a21.55,21.55,0,0,1,6.57,1A17.44,17.44,0,0,1,29.8,3.6a13.12,13.12,0,0,1,3.48,3.79,10.42,10.42,0,0,1,1.38,4.74Z"/><path d="M51.55,49a13.68,13.68,0,0,1-4.17-.62,8.42,8.42,0,0,1-3.33-2,9.26,9.26,0,0,1-2.2-3.44,14.18,14.18,0,0,1-.78-5V12.75h3.27V38.46a7.5,7.5,0,0,0,2,5.72,7.13,7.13,0,0,0,5.18,2,23.24,23.24,0,0,0,7.84-1.3,46.29,46.29,0,0,0,6.94-3v-29h3.27V48.39H66.33V45c-1.09.48-2.22,1-3.38,1.43s-2.38.9-3.67,1.32a36.38,36.38,0,0,1-3.84.93A20.36,20.36,0,0,1,51.55,49Z"/><path d="M93.28,12.7a13.84,13.84,0,0,1,4.18.62,8.7,8.7,0,0,1,3.32,2A9,9,0,0,1,103,18.7a14.19,14.19,0,0,1,.79,5V48.4H100.5V23.12a7.51,7.51,0,0,0-2-5.69,7.26,7.26,0,0,0-5.22-1.92,23.75,23.75,0,0,0-7.84,1.3,45.74,45.74,0,0,0-6.93,3V48.39H75.28V12.8h3.27v3.9c1-.48,2.17-1,3.35-1.43s2.41-.9,3.67-1.27a35.62,35.62,0,0,1,3.83-.93A21.07,21.07,0,0,1,93.28,12.7Z"/><path d="M110.76,39a6.68,6.68,0,0,0,2.17,5.36,9.41,9.41,0,0,0,11.23,0A6.75,6.75,0,0,0,126.33,39V.7h3.27V39a10.16,10.16,0,0,1-.79,4,9.85,9.85,0,0,1-2.23,3.22,10.37,10.37,0,0,1-3.47,2.17,12.28,12.28,0,0,1-4.56.79,12.45,12.45,0,0,1-4.6-.79,10.34,10.34,0,0,1-3.5-2.17,9.38,9.38,0,0,1-2.2-3.22,10.17,10.17,0,0,1-.76-4Z"/><path d="M146.06,49a13.68,13.68,0,0,1-4.17-.62,8.42,8.42,0,0,1-3.33-2,9.26,9.26,0,0,1-2.2-3.44,14.19,14.19,0,0,1-.79-5V12.75h3.28V38.46a7.5,7.5,0,0,0,2,5.72,7.13,7.13,0,0,0,5.18,2,23.24,23.24,0,0,0,7.84-1.3,46.29,46.29,0,0,0,6.94-3v-29h3.27V48.39h-3.27V45c-1.09.48-2.22,1-3.39,1.43s-2.37.9-3.63,1.27a36.38,36.38,0,0,1-3.84.93A20.34,20.34,0,0,1,146.06,49Z"/><path d="M201.67,48.44V25.77H173.58V48.44h-3.3V.7h3.27V22.84h28.09V.7h3.27V48.44Z"/><path d="M223.6,47.31,209.16,12.75h3.5l12.75,30.73,14.77-30.73h3.5l-23.8,49.4H216.5Z"/><path d="M260.93,46.19a16.94,16.94,0,0,0,5.05-.71,12.53,12.53,0,0,0,3.78-1.89,8.5,8.5,0,0,0,2.36-2.7,6.7,6.7,0,0,0,.82-3.22v-.62h3.27v1.19a8.44,8.44,0,0,1-1,4,11.34,11.34,0,0,1-3,3.5,15.65,15.65,0,0,1-4.82,2.48,20.41,20.41,0,0,1-6.4.93A18.43,18.43,0,0,1,254.25,48a14.53,14.53,0,0,1-5-3.15,13.16,13.16,0,0,1-3.07-4.71,15.77,15.77,0,0,1-1.05-5.81V26.85A15.81,15.81,0,0,1,246.18,21a13,13,0,0,1,3.07-4.71,14.4,14.4,0,0,1,5-3.16,20.12,20.12,0,0,1,13.48,0,14.5,14.5,0,0,1,5,3.16A13.16,13.16,0,0,1,275.8,21a16,16,0,0,1,1.05,5.81V31.7H248.36v2a14.93,14.93,0,0,0,.81,5,10.57,10.57,0,0,0,2.43,4,11.2,11.2,0,0,0,3.94,2.57A14.36,14.36,0,0,0,260.93,46.19Zm12.58-18.78a15.19,15.19,0,0,0-.82-5,10.87,10.87,0,0,0-2.41-4,11.28,11.28,0,0,0-4-2.56,16.08,16.08,0,0,0-10.78,0,11.32,11.32,0,0,0-3.94,2.56,10.63,10.63,0,0,0-2.43,3.95,14.93,14.93,0,0,0-.81,5v1.52h25.15Z"/><path d="M297.42,12a19.11,19.11,0,0,1,6.86,1.16,14.7,14.7,0,0,1,5.05,3.16A13.23,13.23,0,0,1,312.46,21a15.59,15.59,0,0,1,1.07,5.81v7.44a15.59,15.59,0,0,1-1.07,5.81,13.5,13.5,0,0,1-3.13,4.71A14.68,14.68,0,0,1,304.28,48a21,21,0,0,1-13.75,0,14.68,14.68,0,0,1-5-3.15,13.23,13.23,0,0,1-3.13-4.71,15.39,15.39,0,0,1-1.07-5.81V26.85A15.39,15.39,0,0,1,282.35,21a13.23,13.23,0,0,1,3.13-4.71,14.61,14.61,0,0,1,5-3.16A19,19,0,0,1,297.42,12ZM284.56,33.7a14.43,14.43,0,0,0,.84,5,10.9,10.9,0,0,0,2.46,4,11.13,11.13,0,0,0,4,2.57,17,17,0,0,0,11.08,0,11.17,11.17,0,0,0,4-2.57,11,11,0,0,0,2.49-4,14.67,14.67,0,0,0,.84-5V27.41a14.71,14.71,0,0,0-.84-5,10.61,10.61,0,0,0-6.49-6.51,17,17,0,0,0-11.08,0,11.19,11.19,0,0,0-4,2.56,11.05,11.05,0,0,0-2.46,3.95,14.47,14.47,0,0,0-.84,5Z"/><path d="M336.66,12.7a13.84,13.84,0,0,1,4.18.62,8.7,8.7,0,0,1,3.32,2,8.84,8.84,0,0,1,2.2,3.41,14.19,14.19,0,0,1,.79,5v24.7h-3.27V23.12a7.51,7.51,0,0,0-2-5.69,7.27,7.27,0,0,0-5.19-1.92,23.65,23.65,0,0,0-7.83,1.3,45.85,45.85,0,0,0-6.94,3V48.39h-3.27V12.8h3.27v3.9c1.05-.48,2.17-1,3.35-1.43s2.41-.9,3.67-1.27a35.62,35.62,0,0,1,3.83-.93A21.1,21.1,0,0,1,336.66,12.7Z"/></g></g></g></g></svg>