<svg width="10rem" height="auto" xmlns="http://www.w3.org/2000/svg" viewBox="0 0 445.56 75.67">
    <defs>
        <style>.cls-1{fill:#fff;}</style>
    </defs>
    <g id="Layer_2" data-name="Layer 2">
        <g id="Layer_1-2" data-name="Layer 1">
            <path class="cls-1"
                d="M0,53.08l7.34-8.84c3.74,3.23,8.7,5.46,12.94,5.46,4.75,0,7-1.79,7-4.67,0-3.09-3-4.1-7.55-6l-6.83-2.88C7.27,33.88,2,29.2,2,21.44c0-9,8.06-16.19,19.43-16.19a24.87,24.87,0,0,1,17.4,7.05l-6.4,8.06c-3.52-2.67-6.83-4.1-11-4.1-4,0-6.33,1.58-6.33,4.38,0,3,3.3,4.18,8.05,6.05l6.69,2.66C36.47,32,40.42,36.47,40.42,44c0,8.92-7.48,16.76-20.42,16.76A29.94,29.94,0,0,1,0,53.08Z" />
            <path class="cls-1"
                d="M47.91,44.17V18.85h12.8V42.58c0,5.61,1.51,7.27,4.75,7.27,2.88,0,4.67-1.15,6.83-4.17V18.85H85.1V59.77H74.67l-.94-5.61h-.29c-3.38,4-7.19,6.62-12.73,6.62C51.72,60.78,47.91,54.38,47.91,44.17Z" />
            <path class="cls-1"
                d="M95.39,18.85h10.43l.93,5.1H107c3.38-3.31,7.55-6.11,13.09-6.11,8.92,0,12.73,6.4,12.73,16.61V59.77H120V36c0-5.69-1.51-7.27-4.75-7.27-2.88,0-4.6,1.3-7,3.67V59.77H95.39Z" />
            <path class="cls-1"
                d="M149.7,74.52l2.23-9.42a9.77,9.77,0,0,0,3.16.57c3.09,0,4.17-1.94,4.17-6.4V18.85h12.88v40c0,9.06-3.6,16.83-15.11,16.83A19.53,19.53,0,0,1,149.7,74.52Zm8.84-68c0-4,3-6.55,7.12-6.55s7.2,2.59,7.2,6.55-3,6.61-7.2,6.61S158.54,10.57,158.54,6.55Z" />
            <path class="cls-1"
                d="M182,44.17V18.85H194.8V42.58c0,5.61,1.51,7.27,4.75,7.27,2.87,0,4.67-1.15,6.83-4.17V18.85h12.8V59.77H208.75l-.93-5.61h-.29c-3.38,4-7.19,6.62-12.73,6.62C185.81,60.78,182,54.38,182,44.17Z" />
            <path class="cls-1"
                d="M229.47,2.3h12.81V16.11l-.65,7.27c3-2.74,7-5.54,12.51-5.54,8.92,0,12.74,6.4,12.74,16.61V59.77H254.07V36c0-5.69-1.51-7.27-4.75-7.27-2.87,0-4.6,1.3-7,3.67V59.77H229.47Z" />
            <path class="cls-1"
                d="M275.87,74.74l2.3-9.71a14.59,14.59,0,0,0,2.74.5,6.55,6.55,0,0,0,6.83-4.89l.57-2.09-15.68-39.7h12.88l5.47,17c1.22,3.74,2.08,7.55,3.16,11.58h.36c.79-3.88,1.73-7.69,2.66-11.58l4.75-17h12.23l-14.1,41c-4,10.5-8.42,15.68-18.13,15.68A20,20,0,0,1,275.87,74.74Z" />
            <path class="cls-1"
                d="M317.16,39.27c0-13.23,9.57-21.43,19.42-21.43,11.8,0,17.55,8.56,17.55,19.71a24,24,0,0,1-.57,5.54h-24c1.16,5.61,5,7.91,10.22,7.91a16.62,16.62,0,0,0,8.63-2.59l4.24,7.7A26.39,26.39,0,0,1,338,60.78C326.23,60.78,317.16,52.87,317.16,39.27Zm26.11-4.6c0-4-1.8-7-6.47-7-3.53,0-6.62,2.23-7.48,7.05Z" />
            <path class="cls-1"
                d="M360,39.27c0-13.52,9.64-21.43,20.07-21.43s20,7.91,20,21.43-9.64,21.51-20,21.51S360,52.87,360,39.27Zm27,0c0-6.76-2.16-11.07-6.91-11.07s-7,4.31-7,11.07,2.15,11.15,7,11.15S387,46.11,387,39.27Z" />
            <path class="cls-1"
                d="M408.16,18.85h10.43l.93,5.1h.22c3.38-3.31,7.55-6.11,13.09-6.11,8.92,0,12.73,6.4,12.73,16.61V59.77h-12.8V36c0-5.69-1.51-7.27-4.75-7.27-2.88,0-4.6,1.3-7.05,3.67V59.77h-12.8Z" />
        </g>
    </g>
</svg>